<svg id="e1e0a266-f7d8-4b3a-aa2f-ba627b883d8a" xmlns="http://www.w3.org/2000/svg" viewBox="0 0 799.98 562.38"><g id="b1ee8569-fa1c-4b94-a2fa-8e0282c7894b"><g id="ba52fb7c-c23e-4ba7-8972-c0575e210acd"><path d="M571,542.8c109.4-35.1,193-132.5,221.8-242.4,6.4-24.2,12.7-52.2-1-75.3-9.7-16.5-33.5-14.7-49.3-8.4-12.3,4.9-23.2,12.9-34.2,20.3-17.4,11.7-52.2,32.6-67,6.1-4.3-7.6-5.1-16.7-4.6-25.4,1.4-24,13.3-47,31.4-62.6,17.2-14.8,39.5-22.7,55.6-39,16.5-16.6,22.9-41.8,16.9-64.5A69.74,69.74,0,0,0,700.9,5.9c-29.3-12.3-62.8-3-92.6,7.7a1025.55,1025.55,0,0,0-200,97.6c-10.2,6.4-19.7,13.4-30.9,17.9-19.4,7.8-37.3,6.2-56.7-.1-29.8-9.6-55.8-29-87.4-33.3-44-6-87-4.8-127.4,16C3.5,164.3-31.6,342.4,31.5,437.9a145.73,145.73,0,0,0,23.3,27.5c16.9,15.6,44.4,25.9,65.1,35.2,45.6,20.4,93.9,34.5,142.9,43.7C362.2,563,473.5,574,571,542.8Z" transform="translate(0.02 -0.05)" style="fill:#f7e733"/></g><ellipse cx="348.32" cy="92.25" rx="44.3" ry="25" style="fill:#f7e733"/><ellipse cx="272.02" cy="44.65" rx="25.8" ry="19.2" style="fill:#f7e733"/><ellipse cx="547.4" cy="88.57" rx="18" ry="16.4" transform="translate(13.64 238.75) rotate(-24.91)" style="fill:#fff"/><ellipse cx="636.82" cy="51.06" rx="37" ry="20.8" transform="translate(37.76 272.92) rotate(-24.91)" style="fill:#fff"/><path d="M285,441.4H132.5a1.2,1.2,0,1,1,0-2.4H285a1.16,1.16,0,0,1,1.2,1.2A1.22,1.22,0,0,1,285,441.4Z" transform="translate(0.02 -0.05)" style="fill:#1a1a1a"/><path d="M344.1,441.4h-15a1.2,1.2,0,0,1,0-2.4h15a1.2,1.2,0,1,1,0,2.4Z" transform="translate(0.02 -0.05)" style="fill:#1a1a1a"/><path d="M680.4,441.4H358a1.2,1.2,0,1,1,0-2.4H679l-.5-2.9a1.22,1.22,0,1,1,2.4-.4l.7,4.3a1,1,0,0,1-.3,1A1,1,0,0,1,680.4,441.4Z" transform="translate(0.02 -0.05)" style="fill:#1a1a1a"/><circle cx="312.12" cy="440.15" r="4.4" style="fill:#1a1a1a"/></g><g id="a1638b83-8187-4a0d-bac2-5bed14c9672d"><rect x="169.82" y="373.55" width="108.1" height="2.4" style="fill:#1f2937"/><polygon points="169.82 374.75 277.82 374.75 264.22 335.85 258.92 328.35 244.32 325.95 194.72 326.35 185.72 329.85 181.92 339.25 169.82 374.75" style="fill:#1f2937"/><rect x="417.82" y="386.95" width="125" height="2.4" style="fill:#1f2937"/><polygon points="417.82 388.15 542.72 388.15 527.02 338.55 520.82 329.05 504.02 325.95 446.62 326.55 436.12 330.85 431.82 342.95 417.82 388.15" style="fill:#1f2937"/><g id="ad135602-5402-41e4-9e49-fce435c9fd7c"><path d="M462.7,401.9l3.5,1.3-2.1,6.3-3.5-1.3a43.18,43.18,0,0,1-4.4,8.2l2.9,2.5-3.9,5.2-2.9-2.6a43,43,0,0,1-6.7,6.1l1.9,3.5-5.3,3.4-1.9-3.6a40.52,40.52,0,0,1-8.1,3.3l.5,3.3.1.8-5.6,1.2h0l-.4.1-.1-.8-.6-3.4a38.66,38.66,0,0,1-4.8.3,25.49,25.49,0,0,1-3.9-.2l-.7,4.3-6-1,.7-4.4a36.6,36.6,0,0,1-8-3l-2.1,3.9-5.3-3.2,2.1-4a39.68,39.68,0,0,1-6.5-5.8l-3.3,3.1-3.9-4.9,3.3-3.1a42.1,42.1,0,0,1-4.2-7.8l-4.1,1.7-2.1-6.1,4.1-1.7a57.21,57.21,0,0,1-1.4-8.1c0-.3-.1-.6-.1-.8l-4.4.1v-6.6l4.4-.1c.1-1.5.3-3,.5-4.5s.6-3,1-4.5l-4.2-1.5,2.1-6.3,4.1,1.5c.1-.3.2-.5.3-.8a50.09,50.09,0,0,1,3.9-7.2l-3.4-2.9,3.9-5.2,3.3,2.9a47,47,0,0,1,6.5-6.1l-2.2-4L401,346l2.1,3.9a59.36,59.36,0,0,1,5.7-2.7c.7-.3,1.5-.5,2.3-.8l-.7-4.5,6-1.3.7,4.4a41,41,0,0,1,8.6-.3l.7-4.4,6,1-.7,4.3c1.3.3,2.5.7,3.7,1.1a33.83,33.83,0,0,1,4.4,1.8l1.6-3.1.4-.7,5.3,3.2-.4.8-1.6,3a45.68,45.68,0,0,1,6.7,5.8l3-2.8,3.9,5-3,2.7a47.8,47.8,0,0,1,4.4,8l3.6-1.5,2.1,6.1-3.5,1.5a47.73,47.73,0,0,1,1.5,9.2l3.8-.1v6.6l-3.7.1a33.71,33.71,0,0,1-1.2,9.6Z" transform="translate(0.02 -0.05)" style="fill:#1f2937"/><path d="M416.7,441.3h-.2l-6-1a1.37,1.37,0,0,1-.8-.5,1,1,0,0,1-.2-.9l.5-3.3a40.39,40.39,0,0,1-6.1-2.3l-1.5,2.9a1.24,1.24,0,0,1-.8.6,1.73,1.73,0,0,1-1-.1l-5.3-3.2a1.17,1.17,0,0,1-.5-1.6l1.6-3a41.45,41.45,0,0,1-5-4.4l-2.4,2.2a1,1,0,0,1-.9.3,1.19,1.19,0,0,1-.9-.5l-3.9-4.9a1.36,1.36,0,0,1,.1-1.7l2.6-2.4c-1.2-1.9-2.3-4-3.3-6l-3,1.2a1.7,1.7,0,0,1-1,0,1.58,1.58,0,0,1-.7-.7l-2.1-6.1a1.19,1.19,0,0,1,.7-1.5l3.1-1.3a53.72,53.72,0,0,1-1.1-7l-3.3.1a1.61,1.61,0,0,1-.9-.3,1.27,1.27,0,0,1-.4-.9v-6.6a1.16,1.16,0,0,1,1.2-1.2l3.3-.1c.1-1.2.3-2.4.5-3.6s.4-2.4.7-3.5l-3.1-1.1a1.11,1.11,0,0,1-.7-1.5l2.1-6.3a1.06,1.06,0,0,1,.6-.7,1.16,1.16,0,0,1,1,0l3.1,1.1a41.17,41.17,0,0,1,3.3-6.2l-2.6-2.2a1.25,1.25,0,0,1-.2-1.7l3.9-5.2a1.35,1.35,0,0,1,.9-.5,1.4,1.4,0,0,1,.9.3l2.4,2.1a44.21,44.21,0,0,1,5-4.7l-1.7-3.1a1.23,1.23,0,0,1,.4-1.6l5.3-3.4a1.64,1.64,0,0,1,1-.2,1.56,1.56,0,0,1,.8.6l1.6,2.9a50,50,0,0,1,4.8-2.1c.4-.2.9-.3,1.3-.5l-.6-3.4a1.22,1.22,0,0,1,1-1.4l6-1.3a1,1,0,0,1,.9.2,1,1,0,0,1,.5.8l.5,3.2a47.55,47.55,0,0,1,6.5-.2l.5-3.3a1.37,1.37,0,0,1,.5-.8,1,1,0,0,1,.9-.2l6,1a1.37,1.37,0,0,1,.8.5,1,1,0,0,1,.2.9l-.5,3.2a27.59,27.59,0,0,1,2.7.8c1.2.4,2.3.9,3.5,1.4l1.4-2.7a1.34,1.34,0,0,1,.7-.6,1.73,1.73,0,0,1,1,.1l5.3,3.2a1.17,1.17,0,0,1,.5,1.6l-1.5,2.8a42.33,42.33,0,0,1,5.1,4.4l2.1-1.9a1,1,0,0,1,.9-.3,1.19,1.19,0,0,1,.9.5l3.9,5a1.36,1.36,0,0,1-.1,1.7l-2.2,2a46.46,46.46,0,0,1,3.4,6.2l2.5-1a1.7,1.7,0,0,1,1,0,1.58,1.58,0,0,1,.7.7l2.1,6.1a1.19,1.19,0,0,1-.7,1.5l-2.6,1.1a45.08,45.08,0,0,1,1.2,7.2l2.6-.1a1.61,1.61,0,0,1,.9.3,1.27,1.27,0,0,1,.4.9v6.6a1.16,1.16,0,0,1-1.2,1.2l-2.6.1a44.47,44.47,0,0,1-1.2,7.3l2.5.9a1.11,1.11,0,0,1,.7,1.5l-2.1,6.3a1.06,1.06,0,0,1-.6.7,1,1,0,0,1-.9,0l-2.4-.9a48.86,48.86,0,0,1-3.4,6.4l2.1,1.8a1.25,1.25,0,0,1,.2,1.7l-3.9,5.2a1.35,1.35,0,0,1-.9.5,1.4,1.4,0,0,1-.9-.3l-2-1.8a59.12,59.12,0,0,1-5.2,4.8l1.4,2.6a1.23,1.23,0,0,1-.4,1.6l-5.3,3.4a1.64,1.64,0,0,1-1,.2,1.56,1.56,0,0,1-.8-.6l-1.4-2.5a34.45,34.45,0,0,1-6.3,2.5l.5,3.1a1.24,1.24,0,0,1-.9,1.4l-5.6,1.2H427l-.4.1a1,1,0,0,1-.9-.2,1,1,0,0,1-.5-.8l-.5-3c-1.2.1-2.5.2-3.7.2a26.2,26.2,0,0,1-2.8-.1l-.5,3.2a1.37,1.37,0,0,1-.5.8A2,2,0,0,1,416.7,441.3Zm-4.7-3.2,3.6.6.5-3.1a1.2,1.2,0,0,1,1.3-1c1.2.1,2.5.2,3.7.2a35.53,35.53,0,0,0,4.6-.3,1.25,1.25,0,0,1,1.4,1l.5,2.9,3.6-.8-.5-3a1.3,1.3,0,0,1,.9-1.4,45.07,45.07,0,0,0,7.9-3.2,1.31,1.31,0,0,1,1.7.5l1.3,2.4,3.3-2.1-1.4-2.5a1.38,1.38,0,0,1,.3-1.6,46.25,46.25,0,0,0,6.5-6,1.15,1.15,0,0,1,1.7-.1l1.9,1.7,2.5-3.2-2-1.8a1.13,1.13,0,0,1-.2-1.6,47.32,47.32,0,0,0,4.3-8,1.19,1.19,0,0,1,1.5-.7l2.4.9,1.3-3.9-2.4-.9a1.2,1.2,0,0,1-.8-1.5,47,47,0,0,0,1.5-9,1.2,1.2,0,0,1,1.2-1.1l2.6-.1v-4.1l-2.5.1a1.2,1.2,0,0,1-1.2-1.1,44.75,44.75,0,0,0-1.5-8.9,1.08,1.08,0,0,1,.7-1.4l2.5-1-1.3-3.8-2.4,1a1.17,1.17,0,0,1-1.6-.7,38.81,38.81,0,0,0-4.3-7.7,1.23,1.23,0,0,1,.2-1.6l2.1-2-2.4-3-2,1.9a1.15,1.15,0,0,1-1.7-.1,34.93,34.93,0,0,0-6.5-5.6,1.25,1.25,0,0,1-.4-1.6l1.4-2.7-3.2-1.9-1.4,2.6a1.17,1.17,0,0,1-1.6.5,32.51,32.51,0,0,0-4.3-1.8,24.18,24.18,0,0,0-3.6-1,1.24,1.24,0,0,1-.9-1.4l.5-3.1-3.6-.6-.5,3.2a1.2,1.2,0,0,1-1.3,1,38.23,38.23,0,0,0-8.3.3,1.25,1.25,0,0,1-1.4-1l-.5-3.1-3.6.8.5,3.3a1.34,1.34,0,0,1-.8,1.4c-.7.2-1.5.5-2.2.7a40.5,40.5,0,0,0-5.6,2.6,1,1,0,0,1-.9.1,1.06,1.06,0,0,1-.7-.6l-1.5-2.8-3.3,2.1,1.6,3a1.38,1.38,0,0,1-.3,1.6,39,39,0,0,0-6.3,5.9,1.23,1.23,0,0,1-.8.4,1.61,1.61,0,0,1-.9-.3l-2.4-2.1-2.5,3.2,2.5,2.2a1.13,1.13,0,0,1,.2,1.6,43.83,43.83,0,0,0-3.8,7.1c-.1.3-.2.5-.3.8a1.26,1.26,0,0,1-1.6.7l-3-1.1-1.3,3.9,3,1.1a1.29,1.29,0,0,1,.8,1.5,31.17,31.17,0,0,0-.9,4.4c-.2,1.5-.4,3-.5,4.4a1.2,1.2,0,0,1-1.2,1.1l-3.2.1V394l3.2-.1h0a1.22,1.22,0,0,1,1.2,1.2,2.2,2.2,0,0,0,.1.8,52.07,52.07,0,0,0,1.3,7.9,1.17,1.17,0,0,1-.7,1.4l-3.1,1.3,1.3,3.8,2.9-1.2a1.39,1.39,0,0,1,.9,0,1.58,1.58,0,0,1,.7.7,42.78,42.78,0,0,0,4.1,7.6,1.23,1.23,0,0,1-.2,1.6l-2.5,2.3,2.4,3,2.3-2.2a1.4,1.4,0,0,1,.9-.3,1.8,1.8,0,0,1,.9.4,37.16,37.16,0,0,0,6.3,5.6,1.25,1.25,0,0,1,.4,1.6l-1.6,2.9,3.2,1.9,1.5-2.8a1.17,1.17,0,0,1,1.6-.5,36.64,36.64,0,0,0,7.8,2.9,1.3,1.3,0,0,1,.9,1.4Z" transform="translate(0.02 -0.05)" style="fill:#1f2937"/><path d="M685,397.7l3.5,1.3-2.1,6.3-3.5-1.3a43.18,43.18,0,0,1-4.4,8.2l2.9,2.5-3.9,5.2-2.9-2.6a43,43,0,0,1-6.7,6.1l1.9,3.5-5.3,3.4-1.9-3.6a40.52,40.52,0,0,1-8.1,3.3l.5,3.3.1.8-5.6,1.2h0l-.4.1-.1-.8-.6-3.4a38.66,38.66,0,0,1-4.8.3,25.49,25.49,0,0,1-3.9-.2l-.7,4.3-6-1,.7-4.4a36.6,36.6,0,0,1-8-3l-2.1,3.9-5.3-3.2,2.1-4a39.68,39.68,0,0,1-6.5-5.8l-3.3,3.1-3.9-4.9,3.3-3.1a42.1,42.1,0,0,1-4.2-7.8l-4.1,1.7-2.1-6.1,4.1-1.7a45.8,45.8,0,0,1-1.4-8.1c0-.3-.1-.6-.1-.8l-4.4.1v-6.6l4.4-.1c.1-1.5.3-3,.5-4.5s.6-3,.9-4.5l-4.2-1.5,2.1-6.3,4.1,1.5c.1-.3.2-.5.3-.8a50.09,50.09,0,0,1,3.9-7.2l-3.4-2.9,3.9-5.2,3.3,2.9a47,47,0,0,1,6.5-6.1l-2.2-4,5.3-3.4,2.1,3.9A59.36,59.36,0,0,1,631,343c.7-.3,1.5-.5,2.3-.8l-.7-4.5,6-1.3.7,4.4a41,41,0,0,1,8.6-.3l.7-4.4,6,1-.7,4.3c1.3.3,2.5.7,3.7,1.1a33.83,33.83,0,0,1,4.4,1.8l1.6-3.1.4-.7,5.3,3.2-.4.8-1.6,3a41,41,0,0,1,6.7,5.8l3-2.8,4,4.9-2.9,2.7a47.8,47.8,0,0,1,4.4,8l3.6-1.5,2.1,6.1-3.5,1.5a47.73,47.73,0,0,1,1.5,9.2l3.8-.1v6.6l-3.7.1a37.88,37.88,0,0,1-1.3,9.7Z" transform="translate(0.02 -0.05)" style="fill:#1f2937"/><path d="M639,437.1h-.2l-6-1a1.37,1.37,0,0,1-.8-.5,1,1,0,0,1-.2-.9l.5-3.3a31.93,31.93,0,0,1-6.1-2.3l-1.5,2.9a1.24,1.24,0,0,1-.8.6,1.73,1.73,0,0,1-1-.1l-5.3-3.2a1.17,1.17,0,0,1-.5-1.6l1.6-3a41.45,41.45,0,0,1-5-4.4l-2.4,2.2a1.4,1.4,0,0,1-.9.3,1.19,1.19,0,0,1-.9-.5l-3.9-4.9a1.36,1.36,0,0,1,.1-1.7l2.6-2.4c-1.2-1.9-2.3-4-3.3-6l-3,1.2a1.7,1.7,0,0,1-1,0,1.58,1.58,0,0,1-.7-.7l-2.1-6.1a1.19,1.19,0,0,1,.7-1.5l3.1-1.3a53.72,53.72,0,0,1-1.1-7l-3.3.1a1.61,1.61,0,0,1-.9-.3,1.27,1.27,0,0,1-.4-.9v-6.6a1.16,1.16,0,0,1,1.2-1.2l3.3-.1c.1-1.2.3-2.4.5-3.6s.4-2.4.7-3.5l-3.1-1.1a1.11,1.11,0,0,1-.7-1.5l2.1-6.3a1.06,1.06,0,0,1,.6-.7,1,1,0,0,1,.9,0l3.1,1.1a41.17,41.17,0,0,1,3.3-6.2l-2.6-2.2a1.25,1.25,0,0,1-.2-1.7l3.9-5.2a1.35,1.35,0,0,1,.9-.5,1.4,1.4,0,0,1,.9.3l2.4,2.1a44.21,44.21,0,0,1,5-4.7l-1.7-3.1a1.23,1.23,0,0,1,.4-1.6l5.3-3.4a1.64,1.64,0,0,1,1-.2,1.56,1.56,0,0,1,.8.6l1.6,2.9a50,50,0,0,1,4.8-2.1c.4-.2.9-.3,1.3-.5l-.6-3.4a1.22,1.22,0,0,1,1-1.4l6-1.3a1,1,0,0,1,.9.2,1,1,0,0,1,.5.8l.5,3.2a47.55,47.55,0,0,1,6.5-.2l.5-3.3a1.37,1.37,0,0,1,.5-.8,1,1,0,0,1,.9-.2l6,1a1.17,1.17,0,0,1,1,1.4l-.5,3.2a27.59,27.59,0,0,1,2.7.8c1.2.4,2.3.9,3.5,1.4l1.4-2.7a1.34,1.34,0,0,1,.7-.6,1.73,1.73,0,0,1,1,.1l5.3,3.2a1.17,1.17,0,0,1,.5,1.6l-1.5,2.8a42.33,42.33,0,0,1,5.1,4.4l2.1-1.9a1.4,1.4,0,0,1,.9-.3,1.19,1.19,0,0,1,.9.5l4,4.9a1.36,1.36,0,0,1-.1,1.7l-2.2,2a46.46,46.46,0,0,1,3.4,6.2l2.5-1a1.7,1.7,0,0,1,1,0,1.58,1.58,0,0,1,.7.7l2.1,6.1a1.19,1.19,0,0,1-.7,1.5l-2.6,1.1a45.08,45.08,0,0,1,1.2,7.2l2.6-.1a1.61,1.61,0,0,1,.9.3,1.27,1.27,0,0,1,.4.9v6.6a1.16,1.16,0,0,1-1.2,1.2l-2.6.1A44.47,44.47,0,0,1,686,397l2.5.9a1.11,1.11,0,0,1,.7,1.5l-2.1,6.3a1.06,1.06,0,0,1-.6.7,1.16,1.16,0,0,1-1,0l-2.4-.9a48.86,48.86,0,0,1-3.4,6.4l2.1,1.8a1.25,1.25,0,0,1,.2,1.7l-3.9,5.2a1.35,1.35,0,0,1-.9.5,1.4,1.4,0,0,1-.9-.3l-2-1.8a59.12,59.12,0,0,1-5.2,4.8l1.4,2.6a1.23,1.23,0,0,1-.4,1.6l-5.3,3.4a1.64,1.64,0,0,1-1,.2,1.56,1.56,0,0,1-.8-.6l-1.4-2.5a43.85,43.85,0,0,1-6.3,2.6l.5,3.1a1.24,1.24,0,0,1-.9,1.4l-5.6,1.2h-.1l-.4.1a1.23,1.23,0,0,1-1-.2,1,1,0,0,1-.5-.8l-.5-3c-1.2.1-2.5.2-3.7.2a26.2,26.2,0,0,1-2.8-.1l-.5,3.2a1.37,1.37,0,0,1-.5.8C639.5,437,639.3,437.1,639,437.1Zm-4.6-3.2,3.6.6.5-3.1a1.2,1.2,0,0,1,1.3-1c1.2.1,2.5.2,3.7.2a35.53,35.53,0,0,0,4.6-.3,1.25,1.25,0,0,1,1.4,1l.5,2.9,3.6-.8-.5-3a1.3,1.3,0,0,1,.9-1.4,45.07,45.07,0,0,0,7.9-3.2,1.31,1.31,0,0,1,1.7.5l1.3,2.4,3.3-2.1-1.4-2.5a1.38,1.38,0,0,1,.3-1.6,46.25,46.25,0,0,0,6.5-6,1.15,1.15,0,0,1,1.7-.1l1.9,1.7,2.5-3.2-2-1.8a1.13,1.13,0,0,1-.2-1.6,40.7,40.7,0,0,0,4.2-8,1.26,1.26,0,0,1,1.6-.7l2.4.9,1.3-3.9-2.3-.8a1.28,1.28,0,0,1-.7-.5,1.18,1.18,0,0,1-.1-1,44.53,44.53,0,0,0,1.5-9,1.2,1.2,0,0,1,1.2-1.1l2.6-.1v-4.1l-2.5.1a1.38,1.38,0,0,1-1.3-1.1,44.75,44.75,0,0,0-1.5-8.9,1.08,1.08,0,0,1,.7-1.4l2.5-1-1.3-3.8-2.4,1a1.17,1.17,0,0,1-1.6-.7,44.59,44.59,0,0,0-4.3-7.7,1.23,1.23,0,0,1,.2-1.6l2.1-2-2.4-3-2,1.9a1.15,1.15,0,0,1-1.7-.1,34.93,34.93,0,0,0-6.5-5.6,1.25,1.25,0,0,1-.4-1.6l1.4-2.7-3.2-1.9-1.4,2.6a1.17,1.17,0,0,1-1.6.5,32.51,32.51,0,0,0-4.3-1.8,24.18,24.18,0,0,0-3.6-1,1.24,1.24,0,0,1-.9-1.4l.5-3.1-3.6-.6-.5,3.2a1.2,1.2,0,0,1-1.3,1,38.23,38.23,0,0,0-8.3.3,1.25,1.25,0,0,1-1.4-1l-.5-3.1-3.6.8.5,3.3a1.34,1.34,0,0,1-.8,1.4c-.7.2-1.5.5-2.2.7a40.5,40.5,0,0,0-5.6,2.6,1,1,0,0,1-.9.1,1.06,1.06,0,0,1-.7-.6l-1.5-2.8-3.3,2.1,1.6,3a1.38,1.38,0,0,1-.3,1.6,39,39,0,0,0-6.3,5.9,1.23,1.23,0,0,1-.8.4,1.61,1.61,0,0,1-.9-.3l-2.4-2.1-2.4,3.2,2.5,2.2a1.13,1.13,0,0,1,.2,1.6,43.83,43.83,0,0,0-3.8,7.1c-.1.3-.2.5-.3.8a1.26,1.26,0,0,1-1.6.7l-3-1.1-1.3,3.9,3,1.1a1.29,1.29,0,0,1,.8,1.5,31.17,31.17,0,0,0-.9,4.4c-.2,1.5-.4,3-.5,4.4a1.2,1.2,0,0,1-1.2,1.1l-3.2.1v4.1l3.2-.1a1.38,1.38,0,0,1,1.3,1.2,2.2,2.2,0,0,0,.1.8,52.07,52.07,0,0,0,1.3,7.9,1.17,1.17,0,0,1-.7,1.4l-3.1,1.3,1.3,3.8,2.9-1.2a1.39,1.39,0,0,1,.9,0,1.58,1.58,0,0,1,.7.7,42.78,42.78,0,0,0,4.1,7.6,1.23,1.23,0,0,1-.2,1.6l-2.5,2.3,2.4,3,2.3-2.2a1.4,1.4,0,0,1,.9-.3,1.8,1.8,0,0,1,.9.4,37.16,37.16,0,0,0,6.3,5.6,1.25,1.25,0,0,1,.4,1.6l-1.6,2.9,3.2,1.9,1.5-2.8a1.17,1.17,0,0,1,1.6-.5,36.64,36.64,0,0,0,7.8,2.9,1.3,1.3,0,0,1,.9,1.4Z" transform="translate(0.02 -0.05)" style="fill:#1f2937"/><path d="M664,441.2h-.2l-25-4.1a1.17,1.17,0,0,1-1-1.4l.7-4.3a1.2,1.2,0,0,1,1.3-1c1.2.1,2.5.2,3.7.2a34.4,34.4,0,0,0,4.6-.3,1.31,1.31,0,0,1,1.4,1l.5,2.9,3.6-.8-.5-3a1.3,1.3,0,0,1,.9-1.4,45.07,45.07,0,0,0,7.9-3.2,1.31,1.31,0,0,1,1.7.5l1.3,2.4,3.3-2.1-1.4-2.5a1.38,1.38,0,0,1,.3-1.6,46.25,46.25,0,0,0,6.5-6,1.15,1.15,0,0,1,1.7-.1l1.9,1.7,2.5-3.2-2-1.8a1.13,1.13,0,0,1-.2-1.6,47.32,47.32,0,0,0,4.3-8,1.19,1.19,0,0,1,1.5-.7l2.4.9,1.3-3.9-2.4-.9a1.35,1.35,0,0,1-.8-1.5,47,47,0,0,0,1.5-9,1.2,1.2,0,0,1,1.2-1.1l2.6-.1v-4.1l-2.5.1h0a1.2,1.2,0,0,1-1.2-1.1,44.75,44.75,0,0,0-1.5-8.9,1.08,1.08,0,0,1,.7-1.4l2.5-1-1.3-3.8-2.4,1a1.17,1.17,0,0,1-1.6-.7,38.81,38.81,0,0,0-4.3-7.7,1.23,1.23,0,0,1,.2-1.6l2.1-2-2.4-3-2,1.9a1.15,1.15,0,0,1-1.7-.1,34.93,34.93,0,0,0-6.5-5.6,1.25,1.25,0,0,1-.4-1.6l1.4-2.7L665,343l-1.4,2.6a1.17,1.17,0,0,1-1.6.5,32.51,32.51,0,0,0-4.3-1.8,24.18,24.18,0,0,0-3.6-1,1.24,1.24,0,0,1-.9-1.4l.7-4.3a1.37,1.37,0,0,1,.5-.8,1,1,0,0,1,.9-.2l25,4.1a1.17,1.17,0,0,1,1,1.4l-.1.6,8.5,1.4a.52.52,0,0,1,.4.2l5.3,3.2a1.17,1.17,0,0,1,.5,1.6l-1.5,2.8a17,17,0,0,0,1.4,1l6.9,1.1a1.23,1.23,0,0,1,.8.4l4,4.9a1.36,1.36,0,0,1-.1,1.7l-2.2,2c.9,1.4,1.8,2.9,2.6,4.4l4,.7a1.59,1.59,0,0,1,1,.8l2.1,6.1a1.19,1.19,0,0,1-.7,1.5l-2.6,1.1a49.27,49.27,0,0,1,1.1,6.7l2.9.5a1.19,1.19,0,0,1,1,1.2v6.6a1.16,1.16,0,0,1-1.2,1.2l-2.6.1a44.47,44.47,0,0,1-1.2,7.3l2.5.9a1.11,1.11,0,0,1,.7,1.5l-2.1,6.3a1.23,1.23,0,0,1-1.4.8l-2.9-.5a43,43,0,0,1-3.2,6l2.1,1.8a1.25,1.25,0,0,1,.2,1.7l-3.9,5.2a1.35,1.35,0,0,1-1.2.5l-4-.7c-1.2,1.2-2.5,2.3-3.8,3.4l1.4,2.6a1.23,1.23,0,0,1-.4,1.6l-5.3,3.4a1.49,1.49,0,0,1-.9.2l-6.9-1.1c-.5.2-1.1.4-1.6.6l.5,3.1a1.24,1.24,0,0,1-.9,1.4l-6,1.3a1.23,1.23,0,0,1-1-.2.1.1,0,0,1-.1-.1l-7.9-1.3-.1.8A2.19,2.19,0,0,1,664,441.2Zm-13.4-4.7,12.4,2,.1-.8a1.17,1.17,0,0,1,1.4-1l9.7,1.6h.2l4.3-.9-.5-3a1.3,1.3,0,0,1,.9-1.4c.9-.3,1.9-.6,2.8-.9a1.27,1.27,0,0,1,.6-.1l6.7,1.1,4-2.6-1.4-2.5a1.38,1.38,0,0,1,.3-1.6,64,64,0,0,0,4.9-4.2,1.13,1.13,0,0,1,1.1-.3l3.9.6,2.8-3.7-2-1.8a1.13,1.13,0,0,1-.2-1.6,51.77,51.77,0,0,0,4-7.3,1.21,1.21,0,0,1,1.3-.7l2.8.5,1.4-4.1-2.4-.9c-.4-.1-.6-.4-.8-.8a.85.85,0,0,1,0-.7,44.53,44.53,0,0,0,1.5-9,1.2,1.2,0,0,1,1.2-1.1l2.6-.1v-4.4l-2.8-.5a1.09,1.09,0,0,1-1-1.1A45.35,45.35,0,0,0,709,377a1.08,1.08,0,0,1,.7-1.4l2.5-1-1.5-4.4-3.9-.6a1.27,1.27,0,0,1-.9-.7,30.84,30.84,0,0,0-3.3-5.5,1.23,1.23,0,0,1,.2-1.6l2.1-2-2.9-3.7-6.8-1.1a.86.86,0,0,1-.6-.3c-.8-.7-1.6-1.2-2.3-1.8a1.25,1.25,0,0,1-.4-1.6l1.4-2.7-4.1-2.4-9.5-1.6a1.17,1.17,0,0,1-1-1.4l.1-.6-12.4-2,4.2,2.5a1.17,1.17,0,0,1,.5,1.6l-1.5,2.8a42.33,42.33,0,0,1,5.1,4.4l2.1-1.9a1.4,1.4,0,0,1,.9-.3,1.19,1.19,0,0,1,.9.5l4,4.9a1.36,1.36,0,0,1-.1,1.7l-2.2,2a46.46,46.46,0,0,1,3.4,6.2l2.5-1a1.7,1.7,0,0,1,1,0,1.58,1.58,0,0,1,.7.7l2.1,6.1a1.19,1.19,0,0,1-.7,1.5l-2.6,1.1a45.08,45.08,0,0,1,1.2,7.2l2.6-.1a1.61,1.61,0,0,1,.9.3,1.27,1.27,0,0,1,.4.9v6.6a1.16,1.16,0,0,1-1.2,1.2l-2.6.1a44.47,44.47,0,0,1-1.2,7.3l2.5.9a1.11,1.11,0,0,1,.7,1.5l-2.1,6.3a1.06,1.06,0,0,1-.6.7,1.16,1.16,0,0,1-1,0l-2.4-.9a48.86,48.86,0,0,1-3.4,6.4l2.1,1.8a1.25,1.25,0,0,1,.2,1.7l-3.9,5.2a1.35,1.35,0,0,1-.9.5,1.4,1.4,0,0,1-.9-.3l-2-1.8a59.12,59.12,0,0,1-5.2,4.8l1.4,2.6a1.23,1.23,0,0,1-.4,1.6l-5.3,3.4a1.64,1.64,0,0,1-1,.2,1.56,1.56,0,0,1-.8-.6l-1.4-2.5a43.85,43.85,0,0,1-6.3,2.6l.5,3.1a1.24,1.24,0,0,1-.9,1.4Zm-10.2-1.7,7.5,1.2c0-.1-.1-.2-.1-.3l-.5-3c-1.2.1-2.5.2-3.7.2a26.2,26.2,0,0,1-2.8-.1Zm15.4-93.9a27.59,27.59,0,0,1,2.7.8c1.2.4,2.3.9,3.5,1.4l1.4-2.7c0-.1.1-.2.2-.3l-7.5-1.2Z" transform="translate(0.02 -0.05)" style="fill:#1f2937"/><path d="M710,401.7l3.5,1.3-2.1,6.3-3.8-.6a41.91,41.91,0,0,1-4.1,7.5l2.9,2.5-3.9,5.2-4.6-.8a40.58,40.58,0,0,1-5,4.3l1.9,3.5-5.3,3.4-7.2-1.2a14,14,0,0,1-2.9.9l.7,4.2-6,1.3v-.2l-9.7-1.6-.3,2-25-4.1.7-4.3c1.3.1,2.6.2,3.9.2a38.66,38.66,0,0,0,4.8-.3l.6,3.4.1.8.4-.1h0l5.6-1.2-.1-.8-.5-3.3a38.25,38.25,0,0,0,8.1-3.3l1.9,3.6,5.3-3.4-1.9-3.5a48.54,48.54,0,0,0,6.7-6.1l2.9,2.6,3.9-5.2-2.9-2.5A49.67,49.67,0,0,0,683,404l3.5,1.3,2.1-6.3-3.5-1.3a47.5,47.5,0,0,0,1.5-9.3l3.7-.1v-6.6l-3.8.1a47.73,47.73,0,0,0-1.5-9.2l3.5-1.5-2.1-6.1-3.6,1.5a47.8,47.8,0,0,0-4.4-8l2.9-2.7-4-4.9-3,2.8a41.69,41.69,0,0,0-6.7-5.8l1.6-3,.4-.8-5.3-3.2-.4.7-1.6,3.1a33.83,33.83,0,0,0-4.4-1.8c-1.2-.4-2.5-.8-3.7-1.1l.7-4.3,25,4.1-.3,1.9,9.7,1.6,5.3,3.2-2,3.7,2.4,1.8,7.2,1.2,4,4.9-2.9,2.7a40.84,40.84,0,0,1,3.4,5.7l4.6.8,2.1,6.1-3.5,1.5a61.71,61.71,0,0,1,1.5,8.4l3.8.6v6.6l-3.7.1a47.5,47.5,0,0,1-1.5,9.3Z" transform="translate(0.02 -0.05)" style="fill:#1f2937"/><path d="M260.1,397.7l3.5,1.3-2.1,6.3L258,404a49.67,49.67,0,0,1-4.4,8.2l2.9,2.5-4,5.1-2.9-2.6a43,43,0,0,1-6.7,6.1l1.9,3.5-5.3,3.4-1.9-3.6a40.52,40.52,0,0,1-8.1,3.3l.5,3.3.1.8-5.6,1.2h0l-.4.1-.1-.8-.6-3.4a38.66,38.66,0,0,1-4.8.3,25.49,25.49,0,0,1-3.9-.2l-.7,4.3-6-1,.7-4.4a36.6,36.6,0,0,1-8-3l-2.1,3.9-5.3-3.2,2.1-4a39.68,39.68,0,0,1-6.5-5.8l-3.3,3.1-3.9-5L185,413a42.1,42.1,0,0,1-4.2-7.8l-4.1,1.7-2.1-6.1,4.1-1.7a57.21,57.21,0,0,1-1.4-8.1c0-.3-.1-.6-.1-.8l-4.4.1v-6.6l4.4-.1c.1-1.5.3-3,.5-4.5s.6-3,1-4.5l-4.2-1.5,2.1-6.2,4.1,1.5c.1-.3.2-.5.3-.8a50.09,50.09,0,0,1,3.9-7.2l-3.3-2.9,3.9-5.1,3.3,2.9a47,47,0,0,1,6.5-6.1l-2.2-4,5.3-3.4,2.1,3.9a41.67,41.67,0,0,1,5.7-2.6c.7-.3,1.5-.5,2.3-.8l-.7-4.5,6-1.3.7,4.4a41,41,0,0,1,8.6-.3l.7-4.4,6,1-.7,4.3c1.3.3,2.5.7,3.7,1.1a33.83,33.83,0,0,1,4.4,1.8l1.6-3.1.4-.7,5.3,3.2-.4.8-1.6,3a45.68,45.68,0,0,1,6.7,5.8l3-2.8,3.9,5-3,2.7a47.8,47.8,0,0,1,4.4,8l3.6-1.5,2.1,6.1-3.5,1.5a47.73,47.73,0,0,1,1.5,9.2l3.8-.1v6.6l-3.7.1a32.57,32.57,0,0,1-1.2,9.5Z" transform="translate(0.02 -0.05)" style="fill:#f7e733"/><path d="M214,437h-.2l-6-1a1.37,1.37,0,0,1-.8-.5,1,1,0,0,1-.2-.9l.5-3.3a44.89,44.89,0,0,1-6.1-2.3l-1.5,2.9a1.24,1.24,0,0,1-.8.6,1.73,1.73,0,0,1-1-.1l-5.3-3.2a1.17,1.17,0,0,1-.5-1.6l1.6-3a41.45,41.45,0,0,1-5-4.4l-2.4,2.2c-.3.2-.6.4-.9.3a1.19,1.19,0,0,1-.9-.5l-3.9-5a1.36,1.36,0,0,1,.1-1.7l2.6-2.4A59.19,59.19,0,0,1,180,407l-3,1.2a1.7,1.7,0,0,1-1,0,1.58,1.58,0,0,1-.7-.7l-2.1-6.1a1.19,1.19,0,0,1,.7-1.5l3.1-1.3a53.72,53.72,0,0,1-1.1-7l-3.3.1a1.61,1.61,0,0,1-.9-.3,1.27,1.27,0,0,1-.4-.9v-6.6a1.16,1.16,0,0,1,1.2-1.2l3.3-.1c.1-1.2.3-2.4.5-3.5s.4-2.4.7-3.5l-3.1-1.1a1.11,1.11,0,0,1-.7-1.5l2.1-6.2a1.06,1.06,0,0,1,.6-.7,1.16,1.16,0,0,1,1,0l3.1,1.1a41.17,41.17,0,0,1,3.3-6.2l-2.6-2.2a1.25,1.25,0,0,1-.2-1.7l3.9-5.1a1.35,1.35,0,0,1,.9-.5,1.4,1.4,0,0,1,.9.3l2.4,2.1a55.58,55.58,0,0,1,5-4.7l-1.7-3.1a1.23,1.23,0,0,1,.4-1.6l5.3-3.4a1.64,1.64,0,0,1,1-.2,1.56,1.56,0,0,1,.8.6l1.6,2.9a50,50,0,0,1,4.8-2.1c.4-.2.9-.3,1.3-.5l-.6-3.4a1.22,1.22,0,0,1,1-1.4l6-1.3a1,1,0,0,1,.9.2,1,1,0,0,1,.5.8l.5,3.2a47.55,47.55,0,0,1,6.5-.2l.5-3.3a1.17,1.17,0,0,1,1.4-1l6,1a1.37,1.37,0,0,1,.8.5,1,1,0,0,1,.2.9l-.5,3.2a27.59,27.59,0,0,1,2.7.8c1.2.4,2.3.9,3.5,1.4l1.4-2.7a1.24,1.24,0,0,1,.8-.6,1.73,1.73,0,0,1,1,.1l5.3,3.2a1.17,1.17,0,0,1,.5,1.6l-1.5,2.8a42.33,42.33,0,0,1,5.1,4.4l2.1-1.9a1,1,0,0,1,.9-.3,1.19,1.19,0,0,1,.9.5l3.9,5a1.36,1.36,0,0,1-.1,1.7l-2.2,2a46.46,46.46,0,0,1,3.4,6.2l2.5-1a1.7,1.7,0,0,1,1,0,1.58,1.58,0,0,1,.7.7l2.1,6.1a1.19,1.19,0,0,1-.7,1.5l-2.6,1.1a45.08,45.08,0,0,1,1.2,7.2l2.6-.1a1.61,1.61,0,0,1,.9.3,1.27,1.27,0,0,1,.4.9v6.6a1.16,1.16,0,0,1-1.2,1.2l-2.6.1a44.47,44.47,0,0,1-1.2,7.3l2.5.9a1.19,1.19,0,0,1,.7,1.5l-2.1,6.3a1.06,1.06,0,0,1-.6.7,1.16,1.16,0,0,1-1,0l-2.4-.9a48.86,48.86,0,0,1-3.4,6.4l2.1,1.8a1.25,1.25,0,0,1,.2,1.7l-4,5.1a1.35,1.35,0,0,1-.9.5,1.4,1.4,0,0,1-.9-.3l-2-1.8a59.12,59.12,0,0,1-5.2,4.8l1.4,2.6a1.23,1.23,0,0,1-.4,1.6l-5.3,3.4a1.64,1.64,0,0,1-1,.2,1.56,1.56,0,0,1-.8-.6l-1.4-2.5a34.45,34.45,0,0,1-6.3,2.5l.5,3.1a1.22,1.22,0,0,1-1,1.4l-5.6,1.2h-.1l-.4.1a1,1,0,0,1-.9-.2,1,1,0,0,1-.5-.8l-.5-3c-1.4.1-2.7.2-4.1.2a20.9,20.9,0,0,1-2.5-.1l-.5,3.2a1.37,1.37,0,0,1-.5.8C214.5,437,214.3,437,214,437Zm-4.6-3.2,3.6.6.5-3.1a1.2,1.2,0,0,1,1.3-1c1.2.1,2.5.2,3.7.2a35.53,35.53,0,0,0,4.6-.3,1.31,1.31,0,0,1,1.4,1l.5,2.9,3.6-.8-.5-3a1.3,1.3,0,0,1,.9-1.4,45.07,45.07,0,0,0,7.9-3.2,1.31,1.31,0,0,1,1.7.5l1.3,2.4,3.3-2.1-1.4-2.5a1.38,1.38,0,0,1,.3-1.6,46.25,46.25,0,0,0,6.5-6,1.15,1.15,0,0,1,1.7-.1l1.9,1.7,2.5-3.2-2-1.8a1.23,1.23,0,0,1-.2-1.6,47.32,47.32,0,0,0,4.3-8,1.31,1.31,0,0,1,1.6-.7l2.4.9,1.3-3.9-2.4-.9h-.1a1.34,1.34,0,0,1-.7-1.4,45.73,45.73,0,0,0,1.5-9,1.2,1.2,0,0,1,1.2-1.1l2.6-.1v-4.1l-2.5.1a1.3,1.3,0,0,1-1.3-1.1,44.75,44.75,0,0,0-1.5-8.9,1.08,1.08,0,0,1,.7-1.4l2.5-1-1.3-3.8-2.4,1a1.17,1.17,0,0,1-1.6-.7,44.12,44.12,0,0,0-4.2-7.7,1.23,1.23,0,0,1,.2-1.6l2.1-2-2.4-3-2,1.9a1.15,1.15,0,0,1-1.7-.1,34.93,34.93,0,0,0-6.5-5.6,1.25,1.25,0,0,1-.4-1.6l1.4-2.7-3.2-1.9-1.4,2.6a1.17,1.17,0,0,1-1.6.5,32.51,32.51,0,0,0-4.3-1.8,24.18,24.18,0,0,0-3.6-1,1.24,1.24,0,0,1-.9-1.4l.5-3.1-3.6-.6-.5,3.2a1.2,1.2,0,0,1-1.3,1,38.23,38.23,0,0,0-8.3.3,1.25,1.25,0,0,1-1.4-1l-.5-3.1-3.6.8.5,3.3a1.34,1.34,0,0,1-.8,1.4c-.7.2-1.5.5-2.2.7a40.5,40.5,0,0,0-5.6,2.6,1,1,0,0,1-.9.1,1.06,1.06,0,0,1-.7-.6l-1.5-2.8-3.3,2.1,1.6,3a1.38,1.38,0,0,1-.3,1.6,39,39,0,0,0-6.3,5.9,1.23,1.23,0,0,1-.8.4,1.61,1.61,0,0,1-.9-.3l-2.4-2.1-2.5,3.2,2.5,2.2a1.23,1.23,0,0,1,.2,1.6,47.4,47.4,0,0,0-3.8,7c-.1.3-.2.5-.3.8a1.26,1.26,0,0,1-1.6.7l-3-1.1-1.3,3.9,3,1.1a1.29,1.29,0,0,1,.8,1.5,31.17,31.17,0,0,0-.9,4.4c-.2,1.5-.4,3-.5,4.4a1.2,1.2,0,0,1-1.2,1.1l-3.2.1v4.1l3.2-.1a1.3,1.3,0,0,1,1.3,1.2,2.2,2.2,0,0,0,.1.8,52.07,52.07,0,0,0,1.3,7.9,1.17,1.17,0,0,1-.7,1.4l-3.1,1.3,1.3,3.8,2.9-1.2a1.39,1.39,0,0,1,.9,0,1.58,1.58,0,0,1,.7.7,42.78,42.78,0,0,0,4.1,7.6,1.23,1.23,0,0,1-.2,1.6l-2.5,2.3,2.4,3,2.3-2.2a1.4,1.4,0,0,1,.9-.3,1.8,1.8,0,0,1,.9.4,37.16,37.16,0,0,0,6.3,5.6,1.25,1.25,0,0,1,.4,1.6l-1.6,2.9,3.2,1.9,1.5-2.8a1.17,1.17,0,0,1,1.6-.5,36.64,36.64,0,0,0,7.8,2.9,1.3,1.3,0,0,1,.9,1.4Z" transform="translate(0.02 -0.05)" style="fill:#1f2937"/><path d="M239,441.2h-.2l-25-4.1a1.37,1.37,0,0,1-.8-.5,1,1,0,0,1-.2-.9l.7-4.3a1.2,1.2,0,0,1,1.3-1c1.2.1,2.5.2,3.7.2a35.53,35.53,0,0,0,4.6-.3,1.31,1.31,0,0,1,1.4,1l.5,2.9,3.6-.8-.5-3a1.3,1.3,0,0,1,.9-1.4,45.07,45.07,0,0,0,7.9-3.2,1.31,1.31,0,0,1,1.7.5l1.3,2.4,3.3-2.1-1.4-2.5a1.38,1.38,0,0,1,.3-1.6,41.32,41.32,0,0,0,6.5-6,1.15,1.15,0,0,1,1.7-.1l1.9,1.7,2.5-3.2-2-1.8a1.13,1.13,0,0,1-.2-1.6,47.32,47.32,0,0,0,4.3-8,1.31,1.31,0,0,1,1.6-.7l2.4.9,1.3-3.9-2.4-.9a1.35,1.35,0,0,1-.8-1.5,45.73,45.73,0,0,0,1.5-9,1.2,1.2,0,0,1,1.2-1.1l2.6-.1v-4.1l-2.5.1a1.3,1.3,0,0,1-1.3-1.1,44.75,44.75,0,0,0-1.5-8.9,1.08,1.08,0,0,1,.7-1.4l2.5-1-1.3-3.8-2.4,1a1.17,1.17,0,0,1-1.6-.7,44.12,44.12,0,0,0-4.2-7.7,1.23,1.23,0,0,1,.2-1.6l2.1-2-2.4-3-2,1.9a1.15,1.15,0,0,1-1.7-.1,34.93,34.93,0,0,0-6.5-5.6,1.25,1.25,0,0,1-.4-1.6l1.4-2.7-3.2-1.9-1.4,2.6a1.17,1.17,0,0,1-1.6.5,32.51,32.51,0,0,0-4.3-1.8,24.18,24.18,0,0,0-3.6-1,1.24,1.24,0,0,1-.9-1.4l.7-4.3a1.17,1.17,0,0,1,1.4-1l25,4.1a1.37,1.37,0,0,1,.8.5,1,1,0,0,1,.2.9l-.1.6,8.5,1.4a.52.52,0,0,1,.4.2l5.3,3.2a1.17,1.17,0,0,1,.5,1.6l-1.5,2.8,1.3,1,6.9,1.1a1.23,1.23,0,0,1,.8.4l3.9,5a1.36,1.36,0,0,1-.1,1.7l-2.2,2c.9,1.4,1.8,2.9,2.6,4.4l4,.7a1.59,1.59,0,0,1,1,.8l2.1,6.1a1.19,1.19,0,0,1-.7,1.5l-2.6,1.1a49.27,49.27,0,0,1,1.1,6.7l2.9.5a1.19,1.19,0,0,1,1,1.2v6.6a1.16,1.16,0,0,1-1.2,1.2l-2.6.1a44.47,44.47,0,0,1-1.2,7.3l2.5.9a1.19,1.19,0,0,1,.7,1.5l-2.1,6.3a1.23,1.23,0,0,1-1.4.8l-2.9-.5a49.5,49.5,0,0,1-3.2,6l2.1,1.8a1.25,1.25,0,0,1,.2,1.7l-4,5.1a1.35,1.35,0,0,1-1.2.5l-4-.7c-1.2,1.2-2.5,2.3-3.8,3.4l1.4,2.6a1.23,1.23,0,0,1-.4,1.6l-5.3,3.4a1.49,1.49,0,0,1-.9.2l-6.9-1.1a9.83,9.83,0,0,1-1.6.5l.5,3.1a1.22,1.22,0,0,1-1,1.4l-6,1.3a1.23,1.23,0,0,1-1-.2.1.1,0,0,1-.1-.1l-7.9-1.3-.1.8a1.37,1.37,0,0,1-.5.8A3.54,3.54,0,0,1,239,441.2Zm-13.4-4.7,12.4,2,.1-.8a1.37,1.37,0,0,1,.5-.8,1,1,0,0,1,.9-.2l9.7,1.6h.2l4.3-.9-.5-3a1.3,1.3,0,0,1,.9-1.4c.9-.3,1.9-.6,2.8-.9a1.27,1.27,0,0,1,.6-.1l6.7,1.1,4-2.6-1.4-2.5a1.38,1.38,0,0,1,.3-1.6,49.28,49.28,0,0,0,4.9-4.2,1.13,1.13,0,0,1,1.1-.3l3.9.6,2.8-3.7-2-1.8a1.23,1.23,0,0,1-.2-1.6,51.77,51.77,0,0,0,4-7.3,1.21,1.21,0,0,1,1.3-.7l2.8.5,1.4-4.1-2.3-.8a2.19,2.19,0,0,1-.5-.3,1.44,1.44,0,0,1-.3-1.3,44.75,44.75,0,0,0,1.5-8.9,1.2,1.2,0,0,1,1.2-1.1l2.6-.1v-4.4l-2.8-.5a1.16,1.16,0,0,1-1-1.1,45.35,45.35,0,0,0-1.4-8.2,1.08,1.08,0,0,1,.7-1.4l2.5-1-1.5-4.4-3.9-.6a1.27,1.27,0,0,1-.9-.7,44.77,44.77,0,0,0-3.2-5.6,1.23,1.23,0,0,1,.2-1.6l2.1-2-2.9-3.7-6.8-1.1a.86.86,0,0,1-.6-.3c-.8-.7-1.6-1.2-2.3-1.8a1.25,1.25,0,0,1-.4-1.6l1.4-2.7-4.1-2.4-9.5-1.6a1.37,1.37,0,0,1-.8-.5,1,1,0,0,1-.2-.9l.1-.6-12.4-2,4.2,2.5a1.17,1.17,0,0,1,.5,1.6l-1.5,2.8a42.33,42.33,0,0,1,5.1,4.4L252,350a1,1,0,0,1,.9-.3,1.19,1.19,0,0,1,.9.5l3.9,5a1.36,1.36,0,0,1-.1,1.7l-2.2,2a46.46,46.46,0,0,1,3.4,6.2l2.5-1a1.7,1.7,0,0,1,1,0,1.58,1.58,0,0,1,.7.7l2.1,6.1a1.19,1.19,0,0,1-.7,1.5l-2.6,1.1a45.08,45.08,0,0,1,1.2,7.2l2.6-.1a1.61,1.61,0,0,1,.9.3,1.27,1.27,0,0,1,.4.9v6.6a1.16,1.16,0,0,1-1.2,1.2l-2.6.1a44.47,44.47,0,0,1-1.2,7.3l2.5.9a1.19,1.19,0,0,1,.7,1.5l-2.1,6.3a1.06,1.06,0,0,1-.6.7,1.16,1.16,0,0,1-1,0l-2.4-.9a48.86,48.86,0,0,1-3.4,6.4l2.1,1.8a1.25,1.25,0,0,1,.2,1.7l-4,5.1a1.35,1.35,0,0,1-.9.5,1.4,1.4,0,0,1-.9-.3l-2-1.8a59.12,59.12,0,0,1-5.2,4.8l1.4,2.6a1.23,1.23,0,0,1-.4,1.6l-5.3,3.4a1.64,1.64,0,0,1-1,.2,1.56,1.56,0,0,1-.8-.6l-1.4-2.5a34.45,34.45,0,0,1-6.3,2.5l.5,3.1a1.22,1.22,0,0,1-1,1.4Zm-10.2-1.7,7.5,1.2c0-.1-.1-.2-.1-.3l-.5-3c-1.4.1-2.7.2-4.1.2a20.9,20.9,0,0,1-2.5-.1ZM231,340.9a27.59,27.59,0,0,1,2.7.8c1.2.4,2.3.9,3.5,1.4l1.4-2.7a.22.22,0,0,1,.2-.2l-7.5-1.2Z" transform="translate(0.02 -0.05)" style="fill:#1f2937"/><path d="M285.1,401.8l3.5,1.3-2.1,6.3-3.8-.6a41.91,41.91,0,0,1-4.1,7.5l2.9,2.5-4,5.1-4.6-.8a40.58,40.58,0,0,1-5,4.3l1.9,3.5-5.3,3.4-7.2-1.2a14,14,0,0,1-2.9.9l.7,4.2-6,1.3v-.2l-9.7-1.6-.3,2-24.9-.4.7-8c1.3.1,2.6.2,3.9.2a38.66,38.66,0,0,0,4.8-.3l.6,3.4.1.8.4-.1h0l5.6-1.2-.1-.8-.5-3.3a38.25,38.25,0,0,0,8.1-3.3l1.9,3.6,5.3-3.4-1.9-3.5a48.54,48.54,0,0,0,6.7-6.1l2.9,2.6,4-5.1-2.9-2.5a49.67,49.67,0,0,0,4.4-8.2l3.5,1.3,2.1-6.3-3.5-1.3a47.5,47.5,0,0,0,1.5-9.3l3.7-.1v-6.6l-3.8.1a47.73,47.73,0,0,0-1.5-9.2l3.5-1.5-2.1-6.1-3.6,1.5a41.58,41.58,0,0,0-4.4-8l3-2.7-3.9-5-3,2.8a37.25,37.25,0,0,0-6.7-5.8l1.6-3,.4-.8-5.3-3.2-.4.7-1.6,3.1a33.83,33.83,0,0,0-4.4-1.8c-1.2-.4-2.5-.8-3.7-1.1l.7-4.3,25,4.1-.3,1.9,9.7,1.6,5.3,3.2-2,3.7,2.4,1.8,7.2,1.2,3.9,5-3,2.7a32.48,32.48,0,0,1,3.3,5.7l4.6.8,2.1,6.1-3.5,1.5a61.71,61.71,0,0,1,1.5,8.4l3.8.6v6.6l-3.7.1a47.5,47.5,0,0,1-1.5,9.3Z" transform="translate(0.02 -0.05)" style="fill:#1f2937"/><path d="M193.5,424h-.2l-7.9-1.3a1.22,1.22,0,1,1,.4-2.4l7.9,1.3a1.17,1.17,0,0,1,1,1.4A1.19,1.19,0,0,1,193.5,424Z" transform="translate(0.02 -0.05)" style="fill:#1f2937"/><path d="M208.3,434.2h-.2l-9.7-1.6a1.22,1.22,0,0,1,.4-2.4l9.7,1.6a1.17,1.17,0,0,1,1,1.4A1.19,1.19,0,0,1,208.3,434.2Z" transform="translate(0.02 -0.05)" style="fill:#1f2937"/><path d="M249.1,440.8h-.3a1.22,1.22,0,1,1,1.4-1A1.27,1.27,0,0,1,249.1,440.8Z" transform="translate(0.02 -0.05)" style="fill:#1f2937"/><path d="M186.8,421.2l5.1.8-2.5-3.1Z" transform="translate(0.02 -0.05)" style="fill:#1f2937"/><polygon points="199.12 431.15 208.02 432.15 207.62 430.75 200.72 428.15 199.12 431.15" style="fill:#1f2937"/><ellipse cx="217.77" cy="386.01" rx="31.1" ry="25.9" transform="translate(-198.56 537.9) rotate(-80.62)" style="fill:#1f2937"/><path d="M201.1,403.3a1.17,1.17,0,0,1-1.1-.8,37.31,37.31,0,0,1,6.8-38.6,1.2,1.2,0,1,1,1.8,1.6,34.79,34.79,0,0,0-6.4,36.1,1.35,1.35,0,0,1-.7,1.6A.6.6,0,0,1,201.1,403.3Z" transform="translate(0.02 -0.05)" style="fill:#f7e733"/><ellipse cx="217.48" cy="387.34" rx="10.6" ry="8" transform="translate(-200.11 538.73) rotate(-80.62)" style="fill:#f7e733"/><path d="M213.3,393.5a1.4,1.4,0,0,1-1.2-.9,15.1,15.1,0,0,1,2-11.9,1.22,1.22,0,1,1,2,1.4,12.36,12.36,0,0,0-1.7,9.9,1.18,1.18,0,0,1-.9,1.5Z" transform="translate(0.02 -0.05)" style="fill:#1f2937"/><path d="M508.7,398l3.5,1.3-2.2,6.2-3.5-1.3a43.63,43.63,0,0,1-4.5,8.2l2.9,2.6-4,5.1-2.9-2.6a44.15,44.15,0,0,1-6.8,6.1l1.9,3.6-5.4,3.4-1.9-3.6a34.07,34.07,0,0,1-8.2,3.2l.5,3.3.1.9-5.6,1.1h0l-.4.1-.1-.8-.5-3.5a38.66,38.66,0,0,1-4.8.3c-1.3,0-2.6-.1-3.9-.2l-.8,4.3-6-1.1.8-4.4a36.86,36.86,0,0,1-8-3.1l-2.1,3.9-5.3-3.2,2.2-4a39.66,39.66,0,0,1-6.4-5.9l-3.3,3-3.9-5,3.4-3a45.48,45.48,0,0,1-4.1-7.9l-4.1,1.7-2-6.2,4.1-1.7a45.53,45.53,0,0,1-1.3-8.1,2,2,0,0,0-.1-.8l-4.4.1.1-6.6,4.4-.1a34.69,34.69,0,0,1,.6-4.5c.3-1.5.6-3,1-4.5l-4.1-1.6,2.2-6.2,4.1,1.6c.1-.3.2-.5.3-.8a42.43,42.43,0,0,1,4-7.2l-3.3-3,4-5.1,3.3,3a47,47,0,0,1,6.6-6l-2.1-4,5.4-3.4,2.1,4A42.86,42.86,0,0,1,456,343a20.16,20.16,0,0,1,2.3-.7l-.7-4.5,6.1-1.2.7,4.4a41.07,41.07,0,0,1,8.6-.2l.8-4.4,6,1.1-.8,4.3c1.3.3,2.5.7,3.7,1.1a24.36,24.36,0,0,1,4.4,1.9l1.7-3.1.4-.7,5.3,3.2-.4.8-1.6,2.9a45.69,45.69,0,0,1,6.6,5.8l3-2.7,3.9,5-3,2.7a47.32,47.32,0,0,1,4.3,8l3.6-1.5,2,6.2L509,373a47.58,47.58,0,0,1,1.4,9.2h3.8l-.1,6.6-3.8.1a48.26,48.26,0,0,1-1.6,9.1Z" transform="translate(0.02 -0.05)" style="fill:#f7e733"/><path d="M462.2,436.9H462l-6-1.1a1.22,1.22,0,0,1-1-1.4l.6-3.3a44.89,44.89,0,0,1-6.1-2.3l-1.6,2.9a1.24,1.24,0,0,1-.8.6,1.73,1.73,0,0,1-1-.1l-5.3-3.2a1.16,1.16,0,0,1-.4-1.6l1.7-3a42.19,42.19,0,0,1-4.9-4.5l-2.4,2.2a1.61,1.61,0,0,1-.9.3,1.19,1.19,0,0,1-.9-.5l-3.9-5a1.36,1.36,0,0,1,.1-1.7l2.6-2.3a44.18,44.18,0,0,1-3.2-6.1l-3,1.2a1.7,1.7,0,0,1-1,0,1.06,1.06,0,0,1-.6-.7l-2-6.2a1.19,1.19,0,0,1,.7-1.5l3.2-1.3a40.71,40.71,0,0,1-1-7h-3.3a1.22,1.22,0,0,1-.9-.4,1.49,1.49,0,0,1-.4-.9l.1-6.6a1.16,1.16,0,0,1,1.2-1.2h3.3c.1-1.2.3-2.4.5-3.5s.5-2.4.7-3.5L423,374a1.19,1.19,0,0,1-.7-1.5l2.2-6.2a1.06,1.06,0,0,1,.6-.7,1,1,0,0,1,.9,0l3,1.2a53.63,53.63,0,0,1,3.4-6.2l-2.5-2.3a1.24,1.24,0,0,1-.1-1.7l4-5.1a1.35,1.35,0,0,1,.9-.5,1.4,1.4,0,0,1,.9.3l2.4,2.2a44.14,44.14,0,0,1,5.1-4.6l-1.6-3.1a1.23,1.23,0,0,1,.4-1.6l5.4-3.4a1.15,1.15,0,0,1,1-.1,1.56,1.56,0,0,1,.8.6l1.5,2.9a50,50,0,0,1,4.8-2.1,6.47,6.47,0,0,1,1.3-.4l-.5-3.4a1.22,1.22,0,0,1,1-1.4l6.1-1.2a1,1,0,0,1,.9.2,1,1,0,0,1,.5.8l.5,3.2a35.43,35.43,0,0,1,6.5-.1l.6-3.3a1.22,1.22,0,0,1,1.4-1l6,1.1a1.22,1.22,0,0,1,1,1.4l-.6,3.2c.9.3,1.8.5,2.7.9,1.2.4,2.3.9,3.5,1.4l1.5-2.7a1.24,1.24,0,0,1,.8-.6,1.73,1.73,0,0,1,1,.1l5.3,3.2a1.16,1.16,0,0,1,.4,1.6l-1.5,2.8a54.68,54.68,0,0,1,5.1,4.5l2.1-1.9a1.61,1.61,0,0,1,.9-.3,1.38,1.38,0,0,1,.9.5l3.9,5a1.36,1.36,0,0,1-.1,1.7l-2.2,2a41.17,41.17,0,0,1,3.3,6.2l2.5-1a1.7,1.7,0,0,1,1,0,1.06,1.06,0,0,1,.6.7l2,6.2a1.19,1.19,0,0,1-.7,1.5l-2.6,1a44.79,44.79,0,0,1,1.1,7.2h2.6a1.22,1.22,0,0,1,.9.4,1.49,1.49,0,0,1,.4.9l-.1,6.6a1.16,1.16,0,0,1-1.2,1.2h-2.6a44.63,44.63,0,0,1-1.3,7.3l2.5.9a1.19,1.19,0,0,1,.7,1.5l-2.2,6.2a1.06,1.06,0,0,1-.6.7,1.16,1.16,0,0,1-1,0l-2.4-.9a49.45,49.45,0,0,1-3.5,6.4l2.1,1.9a1.24,1.24,0,0,1,.1,1.7l-4,5.1a1.35,1.35,0,0,1-.9.5,1.4,1.4,0,0,1-.9-.3l-2-1.8a39.58,39.58,0,0,1-5.3,4.7l1.4,2.6a1.23,1.23,0,0,1-.4,1.6l-5.4,3.4a1.15,1.15,0,0,1-1,.1,1.56,1.56,0,0,1-.8-.6l-1.3-2.5a43.49,43.49,0,0,1-6.3,2.5l.5,3.1a1.22,1.22,0,0,1-1,1.4l-5.6,1.1h-.1l-.4.1a1.23,1.23,0,0,1-1-.2,1,1,0,0,1-.5-.8l-.5-3.1a22.88,22.88,0,0,1-3.7.1,26.2,26.2,0,0,1-2.8-.1l-.6,3.2a1.37,1.37,0,0,1-.5.8C462.7,436.8,462.5,436.9,462.2,436.9Zm-4.6-3.3,3.6.6.5-3.1a1.2,1.2,0,0,1,1.3-1c1.2.1,2.5.2,3.7.2,1.5,0,3.1-.1,4.6-.2a1.31,1.31,0,0,1,1.4,1l.5,2.9,3.7-.7-.5-3a1.3,1.3,0,0,1,.9-1.4,44.68,44.68,0,0,0,7.9-3.1,1.17,1.17,0,0,1,1.6.5l1.3,2.4,3.3-2.1-1.3-2.6a1.28,1.28,0,0,1,.4-1.6,41,41,0,0,0,6.6-5.9,1.24,1.24,0,0,1,1.7-.1l1.9,1.7,2.5-3.2-2-1.8a1.23,1.23,0,0,1-.2-1.6,43.43,43.43,0,0,0,4.3-7.9,1.31,1.31,0,0,1,1.6-.7l2.3.9,1.4-3.9-2.3-.9c-.1,0-.2-.1-.3-.1a1.28,1.28,0,0,1-.6-1.4,45.91,45.91,0,0,0,1.6-9,1.2,1.2,0,0,1,1.2-1.1h2.6l.1-4.1h-2.5a1.22,1.22,0,0,1-1.2-1.2,44.6,44.6,0,0,0-1.4-8.9,1.17,1.17,0,0,1,.7-1.4l2.5-1-1.3-3.8-2.4,1a1.25,1.25,0,0,1-1.6-.7,42.1,42.1,0,0,0-4.2-7.8,1.23,1.23,0,0,1,.2-1.6l2.1-1.9-2.4-3.1-2,1.8a1.15,1.15,0,0,1-1.7-.1,43.46,43.46,0,0,0-6.4-5.7,1.25,1.25,0,0,1-.4-1.6l1.5-2.7-3.2-1.9-1.4,2.6a1.17,1.17,0,0,1-1.6.5A37.89,37.89,0,0,0,482,344c-1.2-.4-2.4-.8-3.6-1.1a1.3,1.3,0,0,1-.9-1.4l.5-3.1-3.6-.6-.6,3.2a1.2,1.2,0,0,1-1.3,1,32.85,32.85,0,0,0-8.3.2,1.25,1.25,0,0,1-1.4-1l-.5-3.1-3.7.7.5,3.3a1.3,1.3,0,0,1-.9,1.4c-.7.2-1.5.5-2.2.7a39.89,39.89,0,0,0-5.6,2.5,1,1,0,0,1-.9.1,1.06,1.06,0,0,1-.7-.6l-1.5-2.8-3.3,2.1,1.6,3a1.28,1.28,0,0,1-.4,1.6,44.12,44.12,0,0,0-6.4,5.8,1.23,1.23,0,0,1-.8.4,1.61,1.61,0,0,1-.9-.3l-2.3-2.1-2.5,3.2,2.5,2.2a1.23,1.23,0,0,1,.2,1.6,48,48,0,0,0-3.9,7c-.1.3-.2.5-.3.8a1.31,1.31,0,0,1-1.6.7l-3-1.1-1.4,3.9,3,1.1a1.19,1.19,0,0,1,.7,1.5c-.4,1.4-.7,2.9-1,4.4a35.62,35.62,0,0,0-.6,4.4,1.28,1.28,0,0,1-1.2,1.1h-3.2v4.1h3.2a1.16,1.16,0,0,1,1.2,1.2,2.2,2.2,0,0,0,.1.8,51.93,51.93,0,0,0,1.2,7.9,1.27,1.27,0,0,1-.7,1.4l-3.1,1.2,1.3,3.8,2.9-1.2a1.39,1.39,0,0,1,.9,0,1.58,1.58,0,0,1,.7.7,43.23,43.23,0,0,0,4,7.7,1.36,1.36,0,0,1-.2,1.6l-2.5,2.3,2.4,3.1,2.3-2.1a1.4,1.4,0,0,1,.9-.3,1.23,1.23,0,0,1,.8.4,47.62,47.62,0,0,0,6.2,5.7,1.23,1.23,0,0,1,.3,1.6l-1.6,2.9,3.2,1.9,1.5-2.8a1.19,1.19,0,0,1,1.6-.5,38.34,38.34,0,0,0,7.7,3,1.3,1.3,0,0,1,.9,1.4Z" transform="translate(0.02 -0.05)" style="fill:#1f2937"/><path d="M487.2,441.2H487l-24.9-4.4a1.22,1.22,0,0,1-1-1.4l.8-4.3a1.2,1.2,0,0,1,1.3-1c1.2.1,2.5.2,3.7.2,1.5,0,3.1-.1,4.6-.2a1.31,1.31,0,0,1,1.4,1l.5,2.9,3.7-.7-.5-3a1.3,1.3,0,0,1,.9-1.4,44.68,44.68,0,0,0,7.9-3.1,1.17,1.17,0,0,1,1.6.5l1.3,2.4,3.3-2.1-1.4-2.6a1.28,1.28,0,0,1,.4-1.6,41,41,0,0,0,6.6-5.9,1.24,1.24,0,0,1,1.7-.1l1.9,1.7,2.5-3.2-2-1.8a1.23,1.23,0,0,1-.2-1.6,43.43,43.43,0,0,0,4.3-7.9,1.31,1.31,0,0,1,1.6-.7l2.3.9,1.4-3.9-2.4-.9a1.19,1.19,0,0,1-.7-1.5,45.91,45.91,0,0,0,1.6-9,1.2,1.2,0,0,1,1.2-1.1H513l.1-4.1h-2.5a1.22,1.22,0,0,1-1.2-1.2,44.6,44.6,0,0,0-1.4-8.9,1.17,1.17,0,0,1,.7-1.4l2.5-1-1.3-3.8-2.4,1a1.25,1.25,0,0,1-1.6-.7,42.1,42.1,0,0,0-4.2-7.8,1.23,1.23,0,0,1,.2-1.6L504,356l-2.4-3.1-2,1.8a1.15,1.15,0,0,1-1.7-.1,43.46,43.46,0,0,0-6.4-5.7,1.25,1.25,0,0,1-.4-1.6l1.5-2.7-3.2-1.9-1.4,2.6a1.17,1.17,0,0,1-1.6.5,37.89,37.89,0,0,0-4.2-1.8c-1.2-.4-2.4-.8-3.6-1.1a1.3,1.3,0,0,1-.9-1.4l.8-4.3a1.22,1.22,0,0,1,1.4-1l24.9,4.4a1.22,1.22,0,0,1,1,1.4l-.1.6,8.5,1.5a.52.52,0,0,1,.4.2l5.3,3.2a1.08,1.08,0,0,1,.4,1.6l-1.5,2.8,1.3,1,6.9,1.2a1.37,1.37,0,0,1,.8.5l3.9,5a1.36,1.36,0,0,1-.1,1.7l-2.2,2a38.27,38.27,0,0,1,2.5,4.4l4,.7a1.59,1.59,0,0,1,1,.8l2,6.2a1.19,1.19,0,0,1-.7,1.5l-2.6,1a49.27,49.27,0,0,1,1.1,6.7l2.9.5a1.19,1.19,0,0,1,1,1.2l-.1,6.6a1.16,1.16,0,0,1-1.2,1.2h-2.6a44.63,44.63,0,0,1-1.3,7.3l2.5.9a1.19,1.19,0,0,1,.7,1.5l-2.2,6.2a1.23,1.23,0,0,1-1.4.8l-2.9-.5c-1,2-2.1,4-3.3,5.9l2.1,1.9a1.24,1.24,0,0,1,.1,1.7l-4,5.1a1.09,1.09,0,0,1-1.2.4l-4-.7a30.92,30.92,0,0,1-3.9,3.3l1.4,2.6a1.23,1.23,0,0,1-.4,1.6l-5.4,3.4a1.49,1.49,0,0,1-.9.2l-6.9-1.2a9.83,9.83,0,0,1-1.6.5l.5,3.1a1.22,1.22,0,0,1-1,1.4l-6.1,1.2a1,1,0,0,1-.9-.2.1.1,0,0,1-.1-.1l-7.9-1.4-.1.8C488.3,440.8,487.8,441.2,487.2,441.2Zm-13.4-4.8,12.4,2.2.1-.8a1.22,1.22,0,0,1,1.4-1l9.6,1.7h.2l4.3-.9-.5-3a1.3,1.3,0,0,1,.9-1.4,18,18,0,0,0,2.8-.9,1.27,1.27,0,0,1,.6-.1l6.7,1.2,4-2.5-1.3-2.6a1.28,1.28,0,0,1,.4-1.6,49.28,49.28,0,0,0,4.9-4.2,1.13,1.13,0,0,1,1.1-.3l3.9.7,2.8-3.6-2-1.8a1.23,1.23,0,0,1-.2-1.6,52.39,52.39,0,0,0,4.1-7.3,1.21,1.21,0,0,1,1.3-.7l2.8.5,1.4-4.1-2.4-.9a1.21,1.21,0,0,1-.7-.7,1.1,1.1,0,0,1,0-.8,52.92,52.92,0,0,0,1.6-9,1.2,1.2,0,0,1,1.2-1.1h2.6l.1-4.4-2.8-.5a1.16,1.16,0,0,1-1-1.1,45.19,45.19,0,0,0-1.3-8.2,1.17,1.17,0,0,1,.7-1.4l2.5-1-1.4-4.4-3.9-.7a1.27,1.27,0,0,1-.9-.7,44.77,44.77,0,0,0-3.2-5.6,1.23,1.23,0,0,1,.2-1.6l2.1-1.9-2.9-3.7-6.7-1.2a.86.86,0,0,1-.6-.3c-.8-.7-1.6-1.3-2.3-1.8a1.25,1.25,0,0,1-.4-1.6l1.5-2.7-4.1-2.5-9.5-1.7a1.22,1.22,0,0,1-1-1.4l.1-.6-12.4-2.2,4.1,2.5a1.16,1.16,0,0,1,.4,1.6l-1.5,2.8a54.68,54.68,0,0,1,5.1,4.5l2.1-1.9a1.61,1.61,0,0,1,.9-.3,1.38,1.38,0,0,1,.9.5l3.9,5a1.36,1.36,0,0,1-.1,1.7l-2.2,2a41.17,41.17,0,0,1,3.3,6.2l2.5-1a1.7,1.7,0,0,1,1,0,1.06,1.06,0,0,1,.6.7l2,6.2a1.19,1.19,0,0,1-.7,1.5l-2.6,1a44.79,44.79,0,0,1,1.1,7.2H514a1.22,1.22,0,0,1,.9.4,1.49,1.49,0,0,1,.4.9l-.1,6.6a1.16,1.16,0,0,1-1.2,1.2h-2.6a44.63,44.63,0,0,1-1.3,7.3l2.5.9a1.19,1.19,0,0,1,.7,1.5l-2.2,6.2a1.06,1.06,0,0,1-.6.7,1.16,1.16,0,0,1-1,0l-2.4-.9a49.45,49.45,0,0,1-3.5,6.4l2.1,1.9a1.24,1.24,0,0,1,.1,1.7l-4,5.1a1.35,1.35,0,0,1-.9.5,1.4,1.4,0,0,1-.9-.3l-2-1.8a39.58,39.58,0,0,1-5.3,4.7l1.4,2.6a1.23,1.23,0,0,1-.4,1.6l-5.4,3.4a1.15,1.15,0,0,1-1,.1,1.56,1.56,0,0,1-.8-.6l-1.3-2.5a43.49,43.49,0,0,1-6.3,2.5l.5,3.1a1.22,1.22,0,0,1-1,1.4Zm-10.1-1.8,7.5,1.3c0-.1-.1-.2-.1-.3l-.5-3.1a22.88,22.88,0,0,1-3.7.1,26.2,26.2,0,0,1-2.8-.1Zm16.4-93.7c.9.3,1.8.5,2.7.9,1.2.4,2.3.9,3.5,1.4l1.5-2.7a.22.22,0,0,1,.2-.2l-7.5-1.3Z" transform="translate(0.02 -0.05)" style="fill:#1f2937"/><path d="M533.6,402.4l3.5,1.3-2.2,6.2-3.8-.7a55.22,55.22,0,0,1-4.2,7.5l2.9,2.6-4,5.1-4.6-.8a49.58,49.58,0,0,1-5,4.3l1.9,3.6-5.4,3.4-7.2-1.3c-.9.3-1.9.6-2.9.9l.6,4.2-6.1,1.2v-.2l-9.6-1.7-.4,2-24.9-4.4.8-4.3c1.3.1,2.6.2,3.9.2a38.66,38.66,0,0,0,4.8-.3l.5,3.5.1.8.4-.1h0l5.6-1.1-.1-.9-.5-3.3a48.06,48.06,0,0,0,8.2-3.2l1.9,3.6,5.4-3.4-1.9-3.6a43.63,43.63,0,0,0,6.8-6.1L501,420l4-5.1-2.9-2.6a50.16,50.16,0,0,0,4.5-8.2l3.5,1.3,2.2-6.2-3.5-1.3a47.59,47.59,0,0,0,1.6-9.3l3.8-.1.1-6.6h-3.8a47.58,47.58,0,0,0-1.4-9.2l3.6-1.4-2-6.2-3.6,1.5a47.32,47.32,0,0,0-4.3-8l3-2.7-3.9-5-3,2.7a40.35,40.35,0,0,0-6.6-5.8l1.6-2.9.4-.8-5.3-3.2-.4.7-1.7,3.1c-1.4-.7-2.9-1.3-4.4-1.9-1.2-.4-2.5-.8-3.7-1.1l.8-4.3,24.9,4.4-.3,1.9,9.7,1.7,5.3,3.2-2,3.7,2.4,1.8,7.2,1.3,3.9,5-3,2.7a64.83,64.83,0,0,1,3.3,5.7l4.6.8,2,6.2-3.6,1.4a48.64,48.64,0,0,1,1.4,8.5l3.8.7-.1,6.6-3.8.1a47.69,47.69,0,0,1-1.7,9.3Z" transform="translate(0.02 -0.05)" style="fill:#1f2937"/><path d="M430.3,408.9h-.2L425,408a1.22,1.22,0,1,1,.4-2.4l5.1.9a1.22,1.22,0,0,1,1,1.4A1.29,1.29,0,0,1,430.3,408.9Z" transform="translate(0.02 -0.05)" style="fill:#1f2937"/><path d="M441.9,423.6h-.2l-7.9-1.4a1.22,1.22,0,1,1,.4-2.4l7.9,1.4a1.22,1.22,0,0,1,1,1.4A1.27,1.27,0,0,1,441.9,423.6Z" transform="translate(0.02 -0.05)" style="fill:#1f2937"/><path d="M456.5,434h-.2l-9.7-1.7a1.22,1.22,0,0,1,.4-2.4l9.7,1.7a1.22,1.22,0,0,1,1,1.4A1.29,1.29,0,0,1,456.5,434Z" transform="translate(0.02 -0.05)" style="fill:#1f2937"/><path d="M497.2,440.9h-.3a1.22,1.22,0,1,1,1.4-1A1,1,0,0,1,497.2,440.9Z" transform="translate(0.02 -0.05)" style="fill:#1f2937"/><path d="M435.1,420.7l5.1.9-2.5-3.1Z" transform="translate(0.02 -0.05)" style="fill:#1f2937"/><polygon points="447.42 430.75 456.32 431.85 455.92 430.45 449.02 427.85 447.42 430.75" style="fill:#1f2937"/><ellipse cx="467.93" cy="386.04" rx="31.1" ry="25.9" transform="translate(6.7 779.98) rotate(-80.03)" style="fill:#1f2937"/><path d="M451,403.2a1.08,1.08,0,0,1-1.1-.8,37.19,37.19,0,0,1,7.2-38.5,1.2,1.2,0,1,1,1.8,1.6,34.67,34.67,0,0,0-6.7,36,1.35,1.35,0,0,1-.7,1.6A.9.9,0,0,1,451,403.2Z" transform="translate(0.02 -0.05)" style="fill:#f7e733"/><ellipse cx="467.61" cy="387.45" rx="10.6" ry="8" transform="translate(5.05 780.84) rotate(-80.03)" style="fill:#f7e733"/><path d="M463.4,393.5a1.2,1.2,0,0,1-1.2-.9,14.79,14.79,0,0,1,2.2-11.9,1.22,1.22,0,1,1,2,1.4,12.4,12.4,0,0,0-1.8,9.9,1.18,1.18,0,0,1-.9,1.5Z" transform="translate(0.02 -0.05)" style="fill:#1f2937"/><path d="M473.1,339.5h-.2l-9.7-1.7a1.22,1.22,0,0,1,.4-2.4l9.7,1.7a1.22,1.22,0,0,1,1,1.4A1.19,1.19,0,0,1,473.1,339.5Z" transform="translate(0.02 -0.05)" style="fill:#1f2937"/><path d="M455.9,344.3h-.2l-7.9-1.4a1.22,1.22,0,1,1,.4-2.4l7.9,1.4a1.22,1.22,0,0,1,1,1.4A1.39,1.39,0,0,1,455.9,344.3Z" transform="translate(0.02 -0.05)" style="fill:#1f2937"/><path d="M440,354.2h-.2l-5.2-.9a1.22,1.22,0,0,1,.4-2.4l5.2.9a1.22,1.22,0,0,1,1,1.4A1.19,1.19,0,0,1,440,354.2Z" transform="translate(0.02 -0.05)" style="fill:#1f2937"/><path d="M430.2,368.6H430l-4.5-.8a1.22,1.22,0,0,1,.4-2.4l4.5.8a1.22,1.22,0,0,1,1,1.4A1.19,1.19,0,0,1,430.2,368.6Z" transform="translate(0.02 -0.05)" style="fill:#1f2937"/><path d="M426.1,392h-.2l-4.5-.8a1.22,1.22,0,1,1,.4-2.4l4.5.8a1.22,1.22,0,0,1,1,1.4A1.19,1.19,0,0,1,426.1,392Z" transform="translate(0.02 -0.05)" style="fill:#1f2937"/><path d="M519.5,355.4h-.2l-.7-.1a1.22,1.22,0,0,1,.4-2.4l.7.1a1.22,1.22,0,0,1,1,1.4A1.27,1.27,0,0,1,519.5,355.4Z" transform="translate(0.02 -0.05)" style="fill:#1f2937"/><path d="M449,341.8s1,2.4,1,2.6c1,0,2-.1,3-.2,0,0-.7-1.3-1.2-1.4S449,341.8,449,341.8Z" transform="translate(0.02 -0.05)" style="fill:#1f2937"/><polygon points="464.32 337.25 472.42 338.95 471.82 339.95 464.62 340.35 464.32 337.25" style="fill:#1f2937"/></g><path d="M158.7,374.8h11.1l2-3.9L183.6,334l4-5.2,5.1-2.3h48.7l15.6,1.1,4.9,3.7,4.5,10.3,14.7,46.7H416.4l18.1-54.4s3.7-4.8,4-5,5.6-2.4,5.6-2.4h5.6s41.2,1,41.7,1.2,5.8,3.5,5.8,3.5l1.7,6,1,5h30.2s-2.5,2.5-3.1,3a40.1,40.1,0,0,0-3.1,4.1c-.2.4-.7,4.4-.7,4.4s2.3,4.8,2.2,5.8S528,363,528,363l1.1,2.3-11,1.3-5,5.1-.5,6.5a29,29,0,0,0,.6,4.1c.2.4,4.1,4.3,4.1,4.3l7,1.8,6.7-.5,182.8.4,5-2,4.2-5.2.8-2.9-1.2-6.4-6.1-5.7-.3-1.8,5-3.7,2.5-4.3-.2-4.8-3.9-6.3-2.7-3h26.5s.7-16.6.5-17.3-3.2-6.9-3.2-6.9l-9.3-3.1H705.3l-.2-18.3-3.1-6.3-3.3-4.2-4.5-2.3-12-2.4-10.8-1.5-99.9-13.7L549,196.6l-2-2.6-5.1-1.2-3.8-.8-291.8.8h-4.9l-6.3,4-5.2,7.1-1.8,16.9L219,266.1s-4.5,2.7-4.9,3.4-1.7,10-1.7,10L202,314.6l-17.9.4-5.1,2.3s-2.5,2.6-2.6,2.8-2.6,6.4-2.6,6.4Z" transform="translate(0.02 -0.05)" style="fill:#f7e733"/><polygon points="395.02 204.35 394.72 200.65 398.62 199.45 537.12 199.45 543.02 202.55 546.02 208.35 561.82 257.25 558.42 259.65 419.82 259.45 412.12 255.15 408.82 246.45 395.02 204.35" style="fill:#fff"/><path d="M538,318.1a1.16,1.16,0,0,1-1.2-1.2V298.4a17.52,17.52,0,0,1,17.5-17.5h0a1.2,1.2,0,0,1,0,2.4,15,15,0,0,0-15,15v18.5A1.4,1.4,0,0,1,538,318.1Z" transform="translate(0.02 -0.05)" style="fill:#fff"/><path d="M424.9,321.1a1.16,1.16,0,0,1-1.2-1.2V281.6A17.26,17.26,0,0,1,433.8,266a1.21,1.21,0,0,1,1,2.2,14.55,14.55,0,0,0-8.7,13.3v38.3A1.18,1.18,0,0,1,424.9,321.1Z" transform="translate(0.02 -0.05)" style="fill:#fff"/><polygon points="213.32 270.95 279.72 270.95 279.72 313.95 282.92 313.95 282.92 267.25 217.52 267.25 213.32 270.95" style="fill:#fff"/><polygon points="385.22 270.95 432.22 270.95 436.02 267.25 385.92 267.25 385.22 270.95" style="fill:#fff"/><polygon points="509.02 320.05 542.32 320.05 541.42 316.35 507.92 316.35 509.02 320.05" style="fill:#fff"/><polygon points="706.72 320.05 740.02 320.05 739.12 316.35 705.62 316.35 706.72 320.05" style="fill:#fff"/><polygon points="281.52 387.55 416.72 387.55 418.62 383.95 280.72 383.95 281.52 387.55" style="fill:#fff"/><polygon points="432.62 270.85 546.42 285.95 550.62 282.85 433.92 267.25 432.62 270.85" style="fill:#fff"/><line x1="357.72" y1="267.25" x2="356.92" y2="270.95" style="fill:none"/><polygon points="284.22 270.95 382.02 270.95 382.02 344.45 385.22 339.35 385.22 267.25 284.22 267.25 284.22 270.95" style="fill:#fff"/><path d="M558.9,293.6c.6.1,11.5,3.4,11.5,16.9s-10.9,15-10.9,15-12.7-2-12.1-18.1C547.9,294.8,558.9,293.6,558.9,293.6Z" transform="translate(0.02 -0.05)" style="fill:#fff"/><path d="M681.8,293.6c.6.1,11.5,3.4,11.5,16.9s-10.9,15-10.9,15-12.7-2-12.1-18.1C670.8,294.8,681.8,293.6,681.8,293.6Z" transform="translate(0.02 -0.05)" style="fill:#fff"/><polygon points="289.12 199.45 375.62 199.45 378.22 202.45 394.72 256.65 391.42 259.45 289.12 259.45 288.52 256.55 289.12 199.45" style="fill:#fff"/><polygon points="239.12 219.35 229.52 256.65 232.32 259.45 278.52 259.45 278.52 199.45 247.12 200.25 241.52 204.65 239.32 209.55 239.12 219.35" style="fill:#fff"/><g id="aa3bbeb9-3ee8-4b72-9c28-3824bb2d224a"><path d="M405.9,267.7a1.3,1.3,0,0,1-1.2-.8l-22.2-67.7a5.66,5.66,0,0,1-.3-1.8,5.91,5.91,0,0,1,5.9-5.9,1.2,1.2,0,1,1,0,2.4,4,4,0,0,0-2.5,1,3.32,3.32,0,0,0-1,2.5,4.25,4.25,0,0,0,.2,1.1L407,266.2a1.16,1.16,0,0,1-.8,1.5C406.1,267.6,406,267.7,405.9,267.7Z" transform="translate(0.02 -0.05)" style="fill:#fff"/><path d="M724,376.7a13.33,13.33,0,0,1-.3,2.8,11.76,11.76,0,0,0-11.2-8.8H534.6a11.54,11.54,0,0,0-11.2,8.8,13.33,13.33,0,0,1-.3-2.8,11.67,11.67,0,0,1,11.6-11.6H712.6A11.57,11.57,0,0,1,724,376.7Z" transform="translate(0.02 -0.05)" style="fill:#fff"/><polygon points="522.62 278.35 654.32 278.35 677.22 282.15 555.02 282.65 522.62 278.35" style="fill:#fff"/><path d="M724,353.6c0,6.4-5.6,11.5-12.5,11.5a13.19,13.19,0,0,1-4.8-.9,11.16,11.16,0,0,1-7.1-14.1,10.94,10.94,0,0,1,7.1-7.1,13.19,13.19,0,0,1,4.8-.9C718.4,342.1,724,347.3,724,353.6Z" transform="translate(0.02 -0.05)" style="fill:#fff"/><path d="M557.5,353.6c0,6.4-5.6,11.5-12.5,11.5a13.19,13.19,0,0,1-4.8-.9,11.16,11.16,0,0,1-7.1-14.1,10.94,10.94,0,0,1,7.1-7.1,13.19,13.19,0,0,1,4.8-.9C551.9,342.1,557.5,347.3,557.5,353.6Z" transform="translate(0.02 -0.05)" style="fill:#fff"/><path d="M711.5,366.3a13.37,13.37,0,0,1-5.2-1,12.05,12.05,0,0,1-7.1-6.2,12.53,12.53,0,0,1-.7-9.5,12.66,12.66,0,0,1,7.9-7.9,15,15,0,0,1,5.2-.9h0c7.5,0,13.7,5.7,13.7,12.7s-6.2,12.8-13.8,12.8Zm0-23a12.17,12.17,0,0,0-4.3.8,10.27,10.27,0,0,0-6.4,6.3,10.05,10.05,0,0,0,.6,7.6,9.59,9.59,0,0,0,5.8,5,13.17,13.17,0,0,0,4.4.8h0c6.2,0,11.2-4.6,11.2-10.3,0-5.5-5.1-10.2-11.3-10.2Z" transform="translate(0.02 -0.05)" style="fill:#1f2937"/><path d="M711.5,366.3h-9.6c-7.5,0-13.7-5.7-13.7-12.7s6.1-12.7,13.7-12.7h9.6v2.4a12.6,12.6,0,0,0-4.3.8,9.92,9.92,0,0,0-5.8,5,9.88,9.88,0,0,0,5.7,13.9h.1a12.6,12.6,0,0,0,4.3.8h0v2.5Zm-9.6-23c-6.2,0-11.2,4.6-11.2,10.3s5,10.3,11.2,10.3h1.4a12.32,12.32,0,0,1-4.8-6.4,12.56,12.56,0,0,1,.7-9.5,13.31,13.31,0,0,1,4.1-4.7Z" transform="translate(0.02 -0.05)" style="fill:#1f2937"/><path d="M545,366.3a13.37,13.37,0,0,1-5.2-1,12.05,12.05,0,0,1-7.1-6.2,12.44,12.44,0,0,1,7.2-17.4,15,15,0,0,1,5.2-.9h0c7.5,0,13.7,5.7,13.7,12.7s-6.2,12.8-13.8,12.8Zm0-23a12.17,12.17,0,0,0-4.3.8,10.27,10.27,0,0,0-6.4,6.3,10.05,10.05,0,0,0,.6,7.6,9.59,9.59,0,0,0,5.8,5,13.17,13.17,0,0,0,4.4.8h0c6.2,0,11.2-4.6,11.2-10.3,0-5.5-5.1-10.2-11.3-10.2Z" transform="translate(0.02 -0.05)" style="fill:#1f2937"/><path d="M545,366.3h-9.6c-7.5,0-13.7-5.7-13.7-12.7s6.1-12.7,13.7-12.7H545v2.4a12.6,12.6,0,0,0-4.3.8,10,10,0,0,0-6.4,12.6,10.11,10.11,0,0,0,6.3,6.3h.1a12.6,12.6,0,0,0,4.3.8h0v2.5Zm-9.5-23c-6.2,0-11.2,4.6-11.2,10.3s5,10.3,11.2,10.3h1.4a12.32,12.32,0,0,1-4.8-6.4,12.56,12.56,0,0,1,.7-9.5,13.31,13.31,0,0,1,4.1-4.7Z" transform="translate(0.02 -0.05)" style="fill:#1f2937"/><path d="M684.7,327a10.55,10.55,0,0,1-3.1-.4c-7.2-1.7-12.5-8.9-12.5-17.2s5.2-15.5,12.5-17.2a16.48,16.48,0,0,1,3.2-.4c8.6,0,15.6,7.9,15.6,17.5C700.3,319.2,693.3,327,684.7,327Zm0-32.6a10.9,10.9,0,0,0-2.6.3c-6.1,1.4-10.6,7.6-10.6,14.8s4.4,13.4,10.6,14.8a10.9,10.9,0,0,0,2.6.3c7.3,0,13.2-6.8,13.2-15.1S691.9,294.4,684.7,294.4Z" transform="translate(0.02 -0.05)" style="fill:#1f2937"/><path d="M681.8,326.7c-7,0-12.7-7.7-12.7-17.2s5.7-17.2,12.7-17.2,12.7,7.7,12.7,17.2S688.8,326.7,681.8,326.7Zm0-31.9c-5.7,0-10.3,6.6-10.3,14.7s4.6,14.7,10.3,14.7,10.3-6.6,10.3-14.7S687.5,294.8,681.8,294.8Z" transform="translate(0.02 -0.05)" style="fill:#1f2937"/><path d="M561.8,327a10.55,10.55,0,0,1-3.1-.4c-7.2-1.7-12.5-8.9-12.5-17.2s5.2-15.5,12.5-17.2a16.48,16.48,0,0,1,3.2-.4c8.6,0,15.6,7.9,15.6,17.5C577.4,319.2,570.4,327,561.8,327Zm0-32.6a11.53,11.53,0,0,0-2.6.3c-6.1,1.4-10.6,7.6-10.6,14.8s4.4,13.4,10.6,14.8a10.9,10.9,0,0,0,2.6.3c7.3,0,13.2-6.8,13.2-15.1S569,294.4,561.8,294.4Z" transform="translate(0.02 -0.05)" style="fill:#1f2937"/><path d="M558.9,326.7c-7,0-12.7-7.7-12.7-17.2s5.7-17.2,12.7-17.2,12.7,7.7,12.7,17.2S565.9,326.7,558.9,326.7Zm0-31.9c-5.7,0-10.3,6.6-10.3,14.7s4.6,14.7,10.3,14.7,10.3-6.6,10.3-14.7S564.6,294.8,558.9,294.8Z" transform="translate(0.02 -0.05)" style="fill:#1f2937"/><path d="M590,360.6h-.5a5.8,5.8,0,0,1-5.8-5.8v-60a5.8,5.8,0,0,1,5.8-5.8h.5a5.8,5.8,0,0,1,5.8,5.8v60A5.8,5.8,0,0,1,590,360.6Zm-.5-69a3.33,3.33,0,0,0-3.3,3.3v60a3.33,3.33,0,0,0,3.3,3.3h.5a3.33,3.33,0,0,0,3.3-3.3v-60a3.33,3.33,0,0,0-3.3-3.3Z" transform="translate(0.02 -0.05)" style="fill:#1f2937"/><path d="M607.3,360.6h-.5a5.8,5.8,0,0,1-5.8-5.8v-60a5.8,5.8,0,0,1,5.8-5.8h.5a5.8,5.8,0,0,1,5.8,5.8v60A5.87,5.87,0,0,1,607.3,360.6Zm-.5-69a3.33,3.33,0,0,0-3.3,3.3v60a3.33,3.33,0,0,0,3.3,3.3h.5a3.33,3.33,0,0,0,3.3-3.3v-60a3.33,3.33,0,0,0-3.3-3.3Z" transform="translate(0.02 -0.05)" style="fill:#1f2937"/><path d="M624.5,360.6H624a5.8,5.8,0,0,1-5.8-5.8v-60A5.8,5.8,0,0,1,624,289h.5a5.8,5.8,0,0,1,5.8,5.8v60A5.8,5.8,0,0,1,624.5,360.6Zm-.5-69a3.33,3.33,0,0,0-3.3,3.3v60a3.33,3.33,0,0,0,3.3,3.3h.5a3.33,3.33,0,0,0,3.3-3.3v-60a3.33,3.33,0,0,0-3.3-3.3Z" transform="translate(0.02 -0.05)" style="fill:#1f2937"/><path d="M641.8,360.6h-.5a5.8,5.8,0,0,1-5.8-5.8v-60a5.8,5.8,0,0,1,5.8-5.8h.5a5.8,5.8,0,0,1,5.8,5.8v60A5.87,5.87,0,0,1,641.8,360.6Zm-.5-69a3.33,3.33,0,0,0-3.3,3.3v60a3.33,3.33,0,0,0,3.3,3.3h.5a3.33,3.33,0,0,0,3.3-3.3v-60a3.33,3.33,0,0,0-3.3-3.3Z" transform="translate(0.02 -0.05)" style="fill:#1f2937"/><path d="M659.1,360.6h-.5a5.8,5.8,0,0,1-5.8-5.8v-60a5.8,5.8,0,0,1,5.8-5.8h.5a5.8,5.8,0,0,1,5.8,5.8v60A5.94,5.94,0,0,1,659.1,360.6Zm-.6-69a3.33,3.33,0,0,0-3.3,3.3v60a3.33,3.33,0,0,0,3.3,3.3h.5a3.33,3.33,0,0,0,3.3-3.3v-60a3.33,3.33,0,0,0-3.3-3.3Z" transform="translate(0.02 -0.05)" style="fill:#1f2937"/><path d="M705.6,343.3a1.16,1.16,0,0,1-1.2-1.2v-43a15,15,0,0,0-15-15H556.9a15,15,0,0,0-15,15v19.4a1.2,1.2,0,1,1-2.4,0V299.1A17.52,17.52,0,0,1,557,281.6H689.5A17.52,17.52,0,0,1,707,299.1v43A1.48,1.48,0,0,1,705.6,343.3Z" transform="translate(0.02 -0.05)" style="fill:#1f2937"/><path d="M743.6,343.3H711.5v-2.4h31.8V328.2a11.39,11.39,0,0,0-11.4-11.4H705.5v-2.4H732a13.83,13.83,0,0,1,13.8,13.8v13A2.14,2.14,0,0,1,743.6,343.3Z" transform="translate(0.02 -0.05)" style="fill:#1f2937"/><path d="M512,343.3h-1.2l.1-16.4a10.07,10.07,0,0,0-10.1-10.1h0v-2.4h31.7a13.83,13.83,0,0,1,13.9,13.8h0v13a2.22,2.22,0,0,1-2.2,2.2H512Zm1.2-2.4h30.6V328a11.27,11.27,0,0,0-11.3-11.1H508.2a12.59,12.59,0,0,1,5.1,10.1Z" transform="translate(0.02 -0.05)" style="fill:#1f2937"/><path d="M416.5,389.5H282a2.16,2.16,0,0,1-2.1-1.5l-16.2-51.2a13.29,13.29,0,0,0-12.7-9.3H195a11.08,11.08,0,0,0-10.6,7.7l-12.6,39.3a2.16,2.16,0,0,1-2.1,1.5H159.5a2.22,2.22,0,0,1-2.2-2.2,1.7,1.7,0,0,1,.1-.7l16.1-50.2a13.54,13.54,0,0,1,12.9-9.4h95.3A17.17,17.17,0,0,1,298,325.4L310.4,364h97.4l12-37.6a17.16,17.16,0,0,1,16.4-12h64.4v2.4H436.2a14.7,14.7,0,0,0-14.1,10.3l-12,37.8a2.16,2.16,0,0,1-2.1,1.5H310.2a2.16,2.16,0,0,1-2.1-1.5l-12.4-38.7A14.49,14.49,0,0,0,281.8,316H186.5a11.08,11.08,0,0,0-10.6,7.7l-16,49.9h9.6L182,334.5a13.54,13.54,0,0,1,12.9-9.4h55.9a15.79,15.79,0,0,1,15.1,11l16.2,51H416.2l16.9-52.9a11.91,11.91,0,0,1,11.4-8.3H488a12.25,12.25,0,0,1,12.2,12.2V341H512v2.4H500a2.22,2.22,0,0,1-2.2-2.2V338a9.71,9.71,0,0,0-9.7-9.7H444.6a9.58,9.58,0,0,0-9.1,6.6L418.6,388A2.16,2.16,0,0,1,416.5,389.5Z" transform="translate(0.02 -0.05)" style="fill:#1f2937"/><rect x="497.32" y="314.25" width="3.4" height="2.4" style="fill:#1f2937"/><rect x="545.02" y="363.85" width="164.9" height="2.4" style="fill:#1f2937"/><path d="M291.3,388.6l-20.9-65.4a10.41,10.41,0,0,0-10-7.3H236v-2.4h24.4a12.87,12.87,0,0,1,12.3,9l20.9,65.4Z" transform="translate(0.02 -0.05)" style="fill:#1f2937"/><path d="M689.4,284.1h-.2L572,267.8H454.2l80,10.8a1.22,1.22,0,0,1-.4,2.4l-98-13.2a1.38,1.38,0,0,1-1.1-1.3,1.2,1.2,0,0,1,1.2-1.1H572.1l117.3,16.3a1.17,1.17,0,0,1,1,1.4C690.5,283.7,690,284.1,689.4,284.1Z" transform="translate(0.02 -0.05)" style="fill:#1f2937"/><path d="M556.9,284.1h-.2L533.9,281a1.22,1.22,0,1,1,.4-2.4l22.8,3.1a1.17,1.17,0,0,1,1,1.4A1.19,1.19,0,0,1,556.9,284.1Z" transform="translate(0.02 -0.05)" style="fill:#1f2937"/><path d="M202.9,316h-.3a1.18,1.18,0,0,1-.9-1.5l9.6-40.6c1.1-3.7,3.3-8.5,8.8-8.5h216a1.2,1.2,0,0,1,0,2.4H220c-3,0-5,2-6.4,6.7L204,315A1.16,1.16,0,0,1,202.9,316Z" transform="translate(0.02 -0.05)" style="fill:#1f2937"/><path d="M371.7,350.6H304.5a1.2,1.2,0,1,1,0-2.4h67.2a13,13,0,0,0,13-13V266.7a1.2,1.2,0,0,1,2.4,0v68.5A15.47,15.47,0,0,1,371.7,350.6Z" transform="translate(0.02 -0.05)" style="fill:#1f2937"/><path d="M283.8,316.1a1.16,1.16,0,0,1-1.2-1.2v-48a1.2,1.2,0,1,1,2.4,0v48A1.22,1.22,0,0,1,283.8,316.1Z" transform="translate(0.02 -0.05)" style="fill:#1f2937"/><path d="M301.5,286.5h18.6a.9.9,0,0,1,.9.9v10.8a.9.9,0,0,1-.9.9H301.5a.9.9,0,0,1-.9-.9V287.4A.9.9,0,0,1,301.5,286.5Z" transform="translate(0.02 -0.05)" style="fill:#1f2937"/><path d="M572,267.8a1.3,1.3,0,0,1-1.2-.8l-22.1-69a5.79,5.79,0,0,0-5.5-4H390.6a3.54,3.54,0,0,0-3.5,3.5,4.25,4.25,0,0,0,.2,1.1l22.2,67.7a1.2,1.2,0,0,1-2.3.7L385,199.3a5.66,5.66,0,0,1-.3-1.8,5.91,5.91,0,0,1,5.9-5.9H543.1a8.16,8.16,0,0,1,7.8,5.7l22.2,68.9a1.16,1.16,0,0,1-.8,1.5C572.3,267.8,572.2,267.8,572,267.8Z" transform="translate(0.02 -0.05)" style="fill:#1f2937"/><path d="M559.1,260.7H420.6a11.49,11.49,0,0,1-11.1-8.1l-16.2-49.4a5,5,0,0,1-.2-1.2,3.76,3.76,0,0,1,3.8-3.8H535.6a11.49,11.49,0,0,1,11.1,8.1l16.1,49.3a5,5,0,0,1,.2,1.2A3.9,3.9,0,0,1,559.1,260.7Zm-162.2-60a1,1,0,0,0-.9.4,1.49,1.49,0,0,0-.4.9.6.6,0,0,0,.1.4l16.2,49.4a9.34,9.34,0,0,0,8.8,6.4H559.2a1.37,1.37,0,0,0,1.4-1.4.6.6,0,0,0-.1-.4l-16.1-49.3a9.25,9.25,0,0,0-8.8-6.4Z" transform="translate(0.02 -0.05)" style="fill:#1f2937"/><path d="M229.5,267.8H219a1.27,1.27,0,0,1-.9-.4,1.69,1.69,0,0,1-.3-1l9.6-56.1c1.9-11.4,9.4-18.8,19-18.8H390.7a1.2,1.2,0,1,1,0,2.4H246.3c-10.1,0-15.2,9-16.5,16.7l-9.3,54.6h9.1a1.16,1.16,0,0,1,1.2,1.2A1.29,1.29,0,0,1,229.5,267.8Z" transform="translate(0.02 -0.05)" style="fill:#1f2937"/><path d="M427.4,319.5a1.16,1.16,0,0,1-1.2-1.2V282.4a17,17,0,0,1,17-17h8.1a1.2,1.2,0,0,1,0,2.4h-8.1a14.62,14.62,0,0,0-14.6,14.6v35.9A1.22,1.22,0,0,1,427.4,319.5Z" transform="translate(0.02 -0.05)" style="fill:#1f2937"/><path d="M391.8,260.7H289.1a1.2,1.2,0,0,1,0-2.4H391.8a1.66,1.66,0,0,0,1.2-.5,1.85,1.85,0,0,0,.5-1.2.9.9,0,0,0-.1-.5l-16.6-53.8a2.26,2.26,0,0,0-2.1-1.5H289.1a1.2,1.2,0,0,1,0-2.4h85.6a4.85,4.85,0,0,1,4.5,3.2l16.6,53.8a5,5,0,0,1,.2,1.2,3.85,3.85,0,0,1-1.2,2.9A4.41,4.41,0,0,1,391.8,260.7Z" transform="translate(0.02 -0.05)" style="fill:#1f2937"/><path d="M278.5,260.7H233.4a5.12,5.12,0,0,1-5.1-5.1v-.3l9.6-43.8c2.1-8.6,6.9-13.3,13.5-13.3h27a1.2,1.2,0,1,1,0,2.4h-27c-7.3,0-10.1,7.2-11.2,11.4l-9.6,43.6a2.63,2.63,0,0,0,2.6,2.5h45.1a1.16,1.16,0,0,1,1.2,1.2C279.5,260,279.2,260.7,278.5,260.7Z" transform="translate(0.02 -0.05)" style="fill:#1f2937"/><path d="M278.5,260.7a1.16,1.16,0,0,1-1.2-1.2v-60a1.2,1.2,0,0,1,2.4,0v60A1.16,1.16,0,0,1,278.5,260.7Z" transform="translate(0.02 -0.05)" style="fill:#1f2937"/><path d="M289.1,260.7a1.16,1.16,0,0,1-1.2-1.2v-60a1.2,1.2,0,1,1,2.4,0v60A1.22,1.22,0,0,1,289.1,260.7Z" transform="translate(0.02 -0.05)" style="fill:#1f2937"/><path d="M712.4,389.5H534.6a12.8,12.8,0,0,1,0-25.6H712.5a12.89,12.89,0,0,1,12.8,12.8h0A13,13,0,0,1,712.4,389.5ZM534.6,366.3a10.3,10.3,0,0,0,0,20.6H712.4a10.3,10.3,0,1,0,0-20.6Z" transform="translate(0.02 -0.05)" style="fill:#1f2937"/><path d="M534.6,389.5h-11a12.72,12.72,0,0,1-9-3.8,12.8,12.8,0,0,1,9-21.8h11a1.2,1.2,0,1,1,0,2.4,10.14,10.14,0,0,0-7.3,3.1,10.64,10.64,0,0,0-3,7.3,10.24,10.24,0,0,0,10.2,10.2,1.22,1.22,0,0,1,1.2,1.2A1.2,1.2,0,0,1,534.6,389.5Zm-11.1-23.2a10.24,10.24,0,0,0-10.2,10.2,10.41,10.41,0,0,0,10.3,10.4h3.6a12.55,12.55,0,0,1-5.3-10.2,13,13,0,0,1,3.7-9.1,10.7,10.7,0,0,1,1.6-1.4h-3.7Z" transform="translate(0.02 -0.05)" style="fill:#1f2937"/><path d="M315.9,366.4H296.1a1.2,1.2,0,0,1,0-2.4h19.8a1.2,1.2,0,1,1,0,2.4Z" transform="translate(0.02 -0.05)" style="fill:#1f2937"/></g><path d="M595.1,375.4h57.4a3.59,3.59,0,0,1,3.6,3.6v18.4a3.59,3.59,0,0,1-3.6,3.6H595.1a3.59,3.59,0,0,1-3.6-3.6V379A3.65,3.65,0,0,1,595.1,375.4Z" transform="translate(0.02 -0.05)" style="fill:#f7e733"/><path d="M656.1,379.8v18.4a3.32,3.32,0,0,1-.7,2.1V384.7a3.59,3.59,0,0,0-3.6-3.6H594.4a3.84,3.84,0,0,0-3,1.5v-2.8a3.59,3.59,0,0,1,3.6-3.6h57.4A3.67,3.67,0,0,1,656.1,379.8Z" transform="translate(0.02 -0.05)" style="fill:#fff"/><path d="M652.4,402.3H595a4.8,4.8,0,0,1-4.8-4.8V379.1a4.8,4.8,0,0,1,4.8-4.8h57.4a4.8,4.8,0,0,1,4.8,4.8v18.4A4.74,4.74,0,0,1,652.4,402.3Zm-57.3-25.6a2.43,2.43,0,0,0-2.4,2.4v18.4a2.43,2.43,0,0,0,2.4,2.4h57.4a2.43,2.43,0,0,0,2.4-2.4V379.1a2.43,2.43,0,0,0-2.4-2.4Z" transform="translate(0.02 -0.05)" style="fill:#1f2937"/><polygon points="487.42 259.65 528.22 199.45 540.62 199.45 527.72 259.55 487.42 259.65" style="fill:#1f2937"/><polygon points="520.02 198.75 519.72 200.15 479.72 259.55 463.22 259.65 504.02 199.45 520.02 198.75" style="fill:#1f2937"/><path d="M458.7,253.1a1.85,1.85,0,0,1-.7-.2,1.17,1.17,0,0,1-.3-1.7l6.9-10.1a1.22,1.22,0,0,1,2,1.4l-6.9,10.1A1.23,1.23,0,0,1,458.7,253.1Z" transform="translate(0.02 -0.05)" style="fill:#1f2937"/><path d="M473.8,230.9a1.85,1.85,0,0,1-.7-.2,1.17,1.17,0,0,1-.3-1.7l17.8-26.3a1.22,1.22,0,0,1,2,1.4l-17.8,26.3A1.59,1.59,0,0,1,473.8,230.9Z" transform="translate(0.02 -0.05)" style="fill:#1f2937"/><path d="M536.1,252.6h-.3a1.15,1.15,0,0,1-.9-1.5l6.9-32a1.24,1.24,0,0,1,2.4.6l-6.9,32A1.2,1.2,0,0,1,536.1,252.6Z" transform="translate(0.02 -0.05)" style="fill:#1f2937"/><polygon points="364.72 199.45 335.32 259.65 314.32 259.65 357.72 199.45 364.72 199.45" style="fill:#1f2937"/><polygon points="276.82 199.65 241.22 259.55 252.02 259.65 279.22 199.65 276.82 199.65" style="fill:#1f2937"/><path d="M255.1,224.5a1.42,1.42,0,0,1-.6-.2,1.17,1.17,0,0,1-.4-1.7l14-23.6a1.23,1.23,0,0,1,2.1,1.3l-14,23.6A1.38,1.38,0,0,1,255.1,224.5Z" transform="translate(0.02 -0.05)" style="fill:#1f2937"/><path d="M327.5,231.2a1.85,1.85,0,0,1-.7-.2,1.27,1.27,0,0,1-.3-1.7l22-30.5a1.22,1.22,0,0,1,2,1.4l-22,30.5A1.39,1.39,0,0,1,327.5,231.2Z" transform="translate(0.02 -0.05)" style="fill:#1f2937"/><path d="M327.3,217.7a1.85,1.85,0,0,1-.7-.2,1.27,1.27,0,0,1-.3-1.7l12.3-17a1.22,1.22,0,0,1,2,1.4l-12.3,17A1.39,1.39,0,0,1,327.3,217.7Z" transform="translate(0.02 -0.05)" style="fill:#1f2937"/><path d="M256.2,209.2a1.42,1.42,0,0,1-.6-.2,1.17,1.17,0,0,1-.4-1.7l4.9-8.3a1.23,1.23,0,0,1,2.1,1.3l-4.9,8.3A1.38,1.38,0,0,1,256.2,209.2Z" transform="translate(0.02 -0.05)" style="fill:#1f2937"/></g><g id="ac4d8ab2-3885-4738-815c-1eae43488e26"><path d="M233.9,418.5a21.68,21.68,0,0,1-21.7,21.7H106.7a36.7,36.7,0,0,1,0-73.4h.1a44.51,44.51,0,0,1,62.7-5.1,44.06,44.06,0,0,1,9.1,10.6,34.16,34.16,0,0,1,38.9,25.1A21.83,21.83,0,0,1,233.9,418.5Z" transform="translate(0.02 -0.05)" style="fill:#fff"/><path d="M190.4,418.5a21.68,21.68,0,0,0,21.7,21.7" transform="translate(0.02 -0.05)" style="fill:#fff"/><path d="M217.4,397.4a23.33,23.33,0,0,0-5.3-.7" transform="translate(0.02 -0.05)" style="fill:#fff"/><path d="M190.4,418.5a21.68,21.68,0,0,0,21.7,21.7" transform="translate(0.02 -0.05)" style="fill:#fff"/><path d="M217.4,397.4a23.33,23.33,0,0,0-5.3-.7" transform="translate(0.02 -0.05)" style="fill:#fff"/><path d="M150.2,406a34.21,34.21,0,0,1,28.3-33.7" transform="translate(0.02 -0.05)" style="fill:#fff"/><path d="M150.2,406a34.21,34.21,0,0,1,28.3-33.7" transform="translate(0.02 -0.05)" style="fill:#fff"/><path d="M96.1,395.7a44,44,0,0,1,10.6-28.8" transform="translate(0.02 -0.05)" style="fill:#fff"/><path d="M212.2,441.4h0a23,23,0,0,1-22.9-22.9,1.2,1.2,0,0,1,2.4,0A20.53,20.53,0,0,0,212.2,439h0a20.49,20.49,0,0,0,20.5-20.5A20.53,20.53,0,0,0,212.2,398a1.2,1.2,0,0,1,0-2.4h0a22.9,22.9,0,1,1,0,45.8Z" transform="translate(0.02 -0.05)" style="fill:#1a1a1a"/><path d="M212.2,441.4H184.4a1.2,1.2,0,0,1,0-2.4h17.5a22.88,22.88,0,0,1-12.6-20.5,1.16,1.16,0,0,1,1.2-1.2h0a1.16,1.16,0,0,1,1.2,1.2A20.53,20.53,0,0,0,212.2,439a1.16,1.16,0,0,1,1.2,1.2A1.22,1.22,0,0,1,212.2,441.4Z" transform="translate(0.02 -0.05)" style="fill:#1a1a1a"/><path d="M150.2,407.3h0a1.16,1.16,0,0,1-1.2-1.2,35.47,35.47,0,0,1,35.4-35.4h0a35.31,35.31,0,0,1,34.2,26.5,1.31,1.31,0,0,1-.3,1.2,1.25,1.25,0,0,1-1.2.3,20.74,20.74,0,0,0-5-.6h0a1.2,1.2,0,1,1,0-2.4h0a19.83,19.83,0,0,1,3.5.3,32.91,32.91,0,0,0-31.3-22.7h0a32.93,32.93,0,0,0-32.9,32.9A1.2,1.2,0,0,1,150.2,407.3Z" transform="translate(0.02 -0.05)" style="fill:#1a1a1a"/><path d="M150.2,407.3h0a1.16,1.16,0,0,1-1.2-1.2,35.34,35.34,0,0,1,27.5-34.5,43.72,43.72,0,0,0-35.9-19.1h0a43.36,43.36,0,0,0-43.3,43.3,1.2,1.2,0,0,1-2.4,0,45.75,45.75,0,0,1,45.7-45.7h0a45.69,45.69,0,0,1,38.9,21.8,1.42,1.42,0,0,1,.1,1.1,1.27,1.27,0,0,1-.9.7,33,33,0,0,0-27.3,32.5A1.2,1.2,0,0,1,150.2,407.3Z" transform="translate(0.02 -0.05)" style="fill:#1a1a1a"/><path d="M184.4,441.4H140.7a1.2,1.2,0,0,1,0-2.4h43.7a1.2,1.2,0,1,1,0,2.4Z" transform="translate(0.02 -0.05)" style="fill:#1a1a1a"/><path d="M106.5,441.4a37.9,37.9,0,0,1-37.8-37.7,37.94,37.94,0,0,1,37.7-38.1h.4a1.22,1.22,0,0,1,1.2,1.2,1.16,1.16,0,0,1-1.2,1.2h-.4a35.55,35.55,0,0,0-35.3,35.6,35.51,35.51,0,0,0,35.4,35.3h34.2a1.2,1.2,0,0,1,0,2.4h-34C106.6,441.4,106.6,441.4,106.5,441.4Z" transform="translate(0.02 -0.05)" style="fill:#1a1a1a"/><ellipse cx="52.52" cy="371.05" rx="13" ry="12.5" style="fill:#fff"/><ellipse cx="86.92" cy="351.15" rx="9.2" ry="8.2" style="fill:#fff"/><ellipse cx="49.38" cy="333.21" rx="14.6" ry="10.6" transform="matrix(0.99, -0.15, 0.15, 0.99, -48.26, 10.78)" style="fill:#fff"/><path d="M52.5,384.8a14,14,0,0,1-14.2-13.7c0-7.5,6.4-13.7,14.2-13.7a14,14,0,0,1,14.2,13.7C66.7,378.6,60.3,384.8,52.5,384.8Zm0-24.9a11.21,11.21,0,1,0,11.7,11.2A11.42,11.42,0,0,0,52.5,359.9Z" transform="translate(0.02 -0.05)" style="fill:#1a1a1a"/><path d="M86.9,360.6c-5.8,0-10.4-4.2-10.4-9.4s4.7-9.4,10.4-9.4,10.4,4.2,10.4,9.4S92.7,360.6,86.9,360.6Zm0-16.3c-4.4,0-8,3.1-8,6.9s3.6,6.9,8,6.9,8-3.1,8-6.9S91.3,344.3,86.9,344.3Z" transform="translate(0.02 -0.05)" style="fill:#1a1a1a"/><path d="M48.1,345.2a18.77,18.77,0,0,1-8.3-1.9c-3.4-1.8-5.5-4.5-6-7.7s.8-6.4,3.5-9.1a18.43,18.43,0,0,1,10.4-4.9,18.82,18.82,0,0,1,11.4,1.7c3.4,1.8,5.5,4.5,6,7.7s-.8,6.4-3.5,9.1A18.43,18.43,0,0,1,51.2,345C50.1,345.1,49.1,345.2,48.1,345.2Zm2.7-21.5c-.9,0-1.8.1-2.8.2h0a15.86,15.86,0,0,0-9.1,4.3,8.51,8.51,0,0,0-2.8,7,8.26,8.26,0,0,0,4.7,5.9,15.6,15.6,0,0,0,9.9,1.4,15.86,15.86,0,0,0,9.1-4.3,8.51,8.51,0,0,0,2.8-7,8.26,8.26,0,0,0-4.7-5.9A16.13,16.13,0,0,0,50.8,323.7Zm-2.9-1Z" transform="translate(0.02 -0.05)" style="fill:#1a1a1a"/></g><g id="ad2556f0-d8f7-44c4-9e62-143cd1c2599f"><path d="M354.1,185.6H208.8a1.2,1.2,0,0,1,0-2.4H354.1a1.2,1.2,0,0,1,0,2.4Z" transform="translate(0.02 -0.05)" style="fill:#1a1a1a"/><path d="M286.9,174.5H195.5a1.2,1.2,0,0,1,0-2.4h91.4a1.2,1.2,0,1,1,0,2.4Z" transform="translate(0.02 -0.05)" style="fill:#1a1a1a"/><path d="M436,181.7H387.4a1.2,1.2,0,0,1,0-2.4H436a1.16,1.16,0,0,1,1.2,1.2A1.22,1.22,0,0,1,436,181.7Z" transform="translate(0.02 -0.05)" style="fill:#1a1a1a"/><path d="M222.3,200.8H179.2a1.2,1.2,0,1,1,0-2.4h43.1a1.2,1.2,0,1,1,0,2.4Z" transform="translate(0.02 -0.05)" style="fill:#1a1a1a"/></g></svg>